<svg width="91" height="71" viewBox="0 0 91 71" fill="none" xmlns="http://www.w3.org/2000/svg">
<g clip-path="url(#clip0_104_266)">
<path d="M38.7929 48.1455C38.7929 48.1455 50.8778 46.6133 55.1076 44.1874C59.3373 41.7615 90.7583 40.6124 90.7583 48.1455C90.7583 55.6785 54.6242 58.9982 54.6242 58.9982L35.6508 57.8491L38.7929 48.1455Z" fill="#FBBEBE"/>
<path opacity="0.1" d="M38.7929 48.1455C38.7929 48.1455 50.8778 46.6133 55.1076 44.1874C59.3373 41.7615 90.7583 40.6124 90.7583 48.1455C90.7583 55.6785 54.6242 58.9982 54.6242 58.9982L35.6508 57.8491L38.7929 48.1455Z" fill="black"/>
<path d="M42.2975 46.741L39.7596 54.5294L0 55.0401V43.549C0 43.549 15.2271 39.8463 27.3121 47.7624C27.3121 47.7624 41.5724 45.9749 42.2975 46.741Z" fill="#00C880"/>
<path opacity="0.1" d="M42.2975 46.7285L39.7596 54.5169L0 55.0276V43.5365C0 43.5365 15.2271 39.8338 27.3121 47.7499C27.3121 47.7499 41.5724 45.9624 42.2975 46.7285Z" fill="black"/>
<path d="M87.7549 43.4852C87.7549 43.9203 86.8312 44.2434 86.7404 44.6632C86.6503 45.0795 87.1991 45.7127 87.0254 46.1103C86.8459 46.5169 86.6339 46.9065 86.3916 47.2749C86.1641 47.6191 85.4613 47.5688 85.1732 47.8915C84.8911 48.1846 84.5923 48.4592 84.2784 48.7137C83.9726 48.9823 83.5584 49.0387 83.2107 49.286C82.8801 49.5211 82.9201 50.3836 82.5545 50.5978C82.205 50.8024 81.6701 50.6378 81.2911 50.8217C80.9273 50.9983 80.7354 51.6367 80.3465 51.7929C79.9713 51.9435 79.5071 51.8786 79.1105 52.0091C78.7267 52.1353 78.2972 52.1148 77.895 52.2211C77.5045 52.3243 77.2062 52.9428 76.7999 53.0262C76.4041 53.1074 75.9402 52.8907 75.5309 52.9523C75.1312 53.0124 74.6663 52.4779 74.2551 52.5184C73.8527 52.558 73.4734 52.8054 73.0613 52.8254C72.6571 52.845 72.2576 53.033 71.8453 53.033C71.4331 53.033 71.0077 53.4416 70.6036 53.422C70.1915 53.402 69.8184 52.7827 69.4159 52.7431C69.0047 52.7027 68.5142 53.3496 68.1145 53.2895C67.7052 53.2279 67.381 52.5947 66.9852 52.5135C66.5788 52.4301 66.0539 52.8826 65.6633 52.7794C65.261 52.6731 65.0223 51.9365 64.6384 51.8102C64.2418 51.6798 63.7503 51.8565 63.3752 51.7059C62.9862 51.5497 62.5123 51.5748 62.1484 51.3982C61.7693 51.2143 61.4973 50.7791 61.1478 50.5745C60.7822 50.3603 60.6135 49.8293 60.283 49.5941C59.9353 49.3468 59.4055 49.3783 59.0998 49.1097C58.777 48.826 58.1722 48.8112 57.8997 48.5061C57.6116 48.1833 57.495 47.6413 57.2675 47.2972C57.028 46.9347 57.4981 46.1683 57.3309 45.7852C57.1573 45.3877 56.4316 45.2261 56.3416 44.8098C56.2487 44.3751 56.201 43.9309 56.1994 43.4852C56.1994 43.0501 56.82 42.7175 56.9109 42.2977C57.0009 41.8813 56.5441 41.2834 56.7178 40.8857C56.8851 40.5026 56.8637 39.9136 57.1034 39.5511C57.3309 39.2069 57.8986 39.072 58.1867 38.7493C58.4591 38.4442 58.9467 38.359 59.2695 38.0754C59.5753 37.8068 59.5363 36.9966 59.884 36.7493C60.2146 36.5142 60.6761 36.4069 61.0418 36.1928C61.3912 35.9882 61.8857 36.0226 62.2648 35.8387C62.6286 35.6622 63.1984 36.01 63.5874 35.8539C63.9625 35.7033 64.2668 35.3742 64.6633 35.2438C65.0472 35.1176 65.2275 34.1549 65.6297 34.0486C66.0202 33.9454 66.5008 34.1167 66.9071 34.0333C67.3029 33.9521 67.8355 34.7116 68.2448 34.6501C68.6446 34.59 68.9435 33.576 69.3547 33.5356C69.7571 33.496 70.2109 34.0211 70.6231 34.0011C71.0272 33.9815 71.433 34.2892 71.8453 34.2892C72.2575 34.2892 72.6682 33.8669 73.0723 33.8865C73.4844 33.9065 73.8478 34.4646 74.2503 34.5042C74.6615 34.5446 75.1663 33.6958 75.5661 33.7559C75.9753 33.8174 76.2916 34.4736 76.6874 34.5549C77.0938 34.6383 77.6028 34.2309 77.9935 34.3341C78.3957 34.4404 78.6377 35.1378 79.0216 35.2641C79.4181 35.3945 79.6625 35.8865 80.0376 36.0371C80.4266 36.1933 81.1492 35.4626 81.5131 35.6392C81.8921 35.8231 82.2195 36.1414 82.5689 36.346C82.9346 36.5602 83.516 36.4525 83.8465 36.6876C84.1942 36.935 84.2797 37.5989 84.5855 37.8675C84.9083 38.1512 85.4408 38.2366 85.7132 38.5418C86.0013 38.8645 86.0413 39.4429 86.2688 39.7871C86.5084 40.1495 86.5009 40.6518 86.6682 41.0349C86.8417 41.4324 87.3051 41.7331 87.3952 42.1494C87.4859 42.5691 87.7549 43.0501 87.7549 43.4852Z" fill="#3F3D56"/>
<path d="M44.2311 51.4651C44.2311 51.4651 57.8871 44.0597 66.7092 46.8687C75.5312 49.6776 87.8579 44.8258 89.3081 46.4856C90.7583 48.1455 92.8128 66.0205 75.4104 67.042C58.008 68.0634 43.1434 63.9777 43.1434 63.9777L44.2311 51.4651Z" fill="#FBBEBE"/>
<path d="M41.0151 50.6765C41.0151 50.6765 46.4064 50.316 46.1647 52.3589C45.923 54.4017 45.6813 70.2339 44.2311 70.617C42.7809 71 31.3001 71 26.587 71H0V46.5223C0 46.5223 18.8526 45.3365 28.2789 50.316C28.2789 50.316 39.6119 50.1432 41.0151 50.6765Z" fill="#00C880"/>
<path d="M66.2717 12.3899C65.7566 12.4206 65.2597 12.6024 64.8369 12.9147C64.414 13.2271 64.0819 13.6577 63.8777 14.1584C63.2791 15.6872 64.0499 17.483 65.2069 18.5978C66.364 19.7126 67.8504 20.3499 69.2008 21.1874C71.0147 22.3124 72.6447 23.8742 73.5523 25.8789C74.4599 27.8835 74.5564 30.3668 73.4895 32.2819C72.4993 34.0595 70.6988 35.1234 68.9816 36.1046" stroke="#3F3D56" stroke-miterlimit="10"/>
<path d="M71.1058 3.06934C70.5906 3.10008 70.0938 3.28182 69.6709 3.59419C69.2481 3.90655 68.9159 4.33719 68.7118 4.83781C68.1131 6.36662 68.8839 8.16243 70.041 9.27725C71.1981 10.3921 72.6844 11.0293 74.0349 11.8669C75.8488 12.9919 77.4787 14.5536 78.3863 16.5583C79.2939 18.563 79.3904 21.0462 78.3236 22.9614C77.3334 24.739 75.5329 25.8029 73.8156 26.7841" stroke="#3F3D56" stroke-miterlimit="10"/>
<path d="M86.9995 5.21301C86.5744 4.90414 86.0762 4.7265 85.5608 4.7C85.0455 4.67351 84.5333 4.7992 84.0818 5.063C82.7226 5.88469 82.2915 7.80319 82.5605 9.43306C82.8295 11.0629 83.6355 12.5281 84.218 14.0639C85.0005 16.1266 85.3844 18.4157 84.9405 20.5878C84.4965 22.76 83.134 24.786 81.1807 25.6103C79.3677 26.3755 77.3276 26.0522 75.4012 25.7174" stroke="#3F3D56" stroke-miterlimit="10"/>
<path d="M72.9934 24.4811C74.5952 24.4811 75.8938 23.8147 75.8938 22.9927C75.8938 22.1707 74.5952 21.5043 72.9934 21.5043C71.3915 21.5043 70.093 22.1707 70.093 22.9927C70.093 23.8147 71.3915 24.4811 72.9934 24.4811Z" fill="#57B894"/>
<path d="M72.6308 24.2257C74.2326 24.2257 75.5312 23.5593 75.5312 22.7373C75.5312 21.9153 74.2326 21.249 72.6308 21.249C71.029 21.249 69.7304 21.9153 69.7304 22.7373C69.7304 23.5593 71.029 24.2257 72.6308 24.2257Z" stroke="#3F3D56" stroke-miterlimit="10"/>
<path d="M79.2775 23.2043C80.8794 23.2043 82.1779 22.5379 82.1779 21.7159C82.1779 20.8939 80.8794 20.2275 79.2775 20.2275C77.6757 20.2275 76.3771 20.8939 76.3771 21.7159C76.3771 22.5379 77.6757 23.2043 79.2775 23.2043Z" fill="#57B894"/>
<path d="M78.915 22.9489C80.5168 22.9489 81.8154 22.2825 81.8154 21.4605C81.8154 20.6385 80.5168 19.9722 78.915 19.9722C77.3131 19.9722 76.0146 20.6385 76.0146 21.4605C76.0146 22.2825 77.3131 22.9489 78.915 22.9489Z" stroke="#3F3D56" stroke-miterlimit="10"/>
<path d="M80.2444 28.8221C81.8462 28.8221 83.1448 28.1558 83.1448 27.3338C83.1448 26.5118 81.8462 25.8454 80.2444 25.8454C78.6425 25.8454 77.344 26.5118 77.344 27.3338C77.344 28.1558 78.6425 28.8221 80.2444 28.8221Z" fill="#57B894"/>
<path d="M79.8818 28.5668C81.4836 28.5668 82.7822 27.9004 82.7822 27.0784C82.7822 26.2564 81.4836 25.59 79.8818 25.59C78.2799 25.59 76.9814 26.2564 76.9814 27.0784C76.9814 27.9004 78.2799 28.5668 79.8818 28.5668Z" stroke="#3F3D56" stroke-miterlimit="10"/>
<path d="M79.6401 14.7775C81.2419 14.7775 82.5405 14.1111 82.5405 13.2891C82.5405 12.4671 81.2419 11.8007 79.6401 11.8007C78.0382 11.8007 76.7397 12.4671 76.7397 13.2891C76.7397 14.1111 78.0382 14.7775 79.6401 14.7775Z" fill="#57B894"/>
<path d="M79.2775 14.5221C80.8794 14.5221 82.1779 13.8557 82.1779 13.0337C82.1779 12.2117 80.8794 11.5453 79.2775 11.5453C77.6757 11.5453 76.3771 12.2117 76.3771 13.0337C76.3771 13.8557 77.6757 14.5221 79.2775 14.5221Z" stroke="#3F3D56" stroke-miterlimit="10"/>
<path d="M72.3891 13.8837C73.991 13.8837 75.2895 13.2174 75.2895 12.3954C75.2895 11.5733 73.991 10.907 72.3891 10.907C70.7873 10.907 69.4887 11.5733 69.4887 12.3954C69.4887 13.2174 70.7873 13.8837 72.3891 13.8837Z" fill="#57B894"/>
<path d="M72.0266 13.6284C73.6284 13.6284 74.9269 12.962 74.9269 12.14C74.9269 11.318 73.6284 10.6516 72.0266 10.6516C70.4247 10.6516 69.1262 11.318 69.1262 12.14C69.1262 12.962 70.4247 13.6284 72.0266 13.6284Z" stroke="#3F3D56" stroke-miterlimit="10"/>
<path d="M75.652 10.6917C77.2539 10.6917 78.5524 10.0253 78.5524 9.20334C78.5524 8.38133 77.2539 7.71497 75.652 7.71497C74.0502 7.71497 72.7516 8.38133 72.7516 9.20334C72.7516 10.0253 74.0502 10.6917 75.652 10.6917Z" fill="#57B894"/>
<path d="M75.2895 10.4364C76.8913 10.4364 78.1899 9.77003 78.1899 8.94803C78.1899 8.12602 76.8913 7.45966 75.2895 7.45966C73.6876 7.45966 72.3891 8.12602 72.3891 8.94803C72.3891 9.77003 73.6876 10.4364 75.2895 10.4364Z" stroke="#3F3D56" stroke-miterlimit="10"/>
<path d="M82.7822 11.3301C84.3841 11.3301 85.6826 10.6638 85.6826 9.84177C85.6826 9.01976 84.3841 8.35339 82.7822 8.35339C81.1804 8.35339 79.8818 9.01976 79.8818 9.84177C79.8818 10.6638 81.1804 11.3301 82.7822 11.3301Z" fill="#57B894"/>
<path d="M82.4197 11.0748C84.0215 11.0748 85.3201 10.4084 85.3201 9.5864C85.3201 8.76439 84.0215 8.09802 82.4197 8.09802C80.8178 8.09802 79.5193 8.76439 79.5193 9.5864C79.5193 10.4084 80.8178 11.0748 82.4197 11.0748Z" stroke="#3F3D56" stroke-miterlimit="10"/>
<path d="M88.0996 15.5435C89.7015 15.5435 91 14.8772 91 14.0551C91 13.2331 89.7015 12.5668 88.0996 12.5668C86.4978 12.5668 85.1992 13.2331 85.1992 14.0551C85.1992 14.8772 86.4978 15.5435 88.0996 15.5435Z" fill="#57B894"/>
<path d="M87.7371 15.2882C89.3389 15.2882 90.6375 14.6218 90.6375 13.7998C90.6375 12.9778 89.3389 12.3115 87.7371 12.3115C86.1352 12.3115 84.8367 12.9778 84.8367 13.7998C84.8367 14.6218 86.1352 15.2882 87.7371 15.2882Z" stroke="#3F3D56" stroke-miterlimit="10"/>
<path d="M69.3679 8.13818C70.9697 8.13818 72.2683 7.47182 72.2683 6.64981C72.2683 5.82781 70.9697 5.16144 69.3679 5.16144C67.766 5.16144 66.4675 5.82781 66.4675 6.64981C66.4675 7.47182 67.766 8.13818 69.3679 8.13818Z" fill="#57B894"/>
<path d="M69.0053 7.88281C70.6072 7.88281 71.9057 7.21644 71.9057 6.39444C71.9057 5.57243 70.6072 4.90607 69.0053 4.90607C67.4035 4.90607 66.1049 5.57243 66.1049 6.39444C66.1049 7.21644 67.4035 7.88281 69.0053 7.88281Z" stroke="#3F3D56" stroke-miterlimit="10"/>
<path d="M71.1806 3.28638C72.7825 3.28638 74.081 2.62001 74.081 1.798C74.081 0.975998 72.7825 0.309631 71.1806 0.309631C69.5788 0.309631 68.2802 0.975998 68.2802 1.798C68.2802 2.62001 69.5788 3.28638 71.1806 3.28638Z" fill="#57B894"/>
<path d="M70.8181 3.03101C72.4199 3.03101 73.7185 2.36464 73.7185 1.54263C73.7185 0.720627 72.4199 0.0542603 70.8181 0.0542603C69.2162 0.0542603 67.9177 0.720627 67.9177 1.54263C67.9177 2.36464 69.2162 3.03101 70.8181 3.03101Z" stroke="#3F3D56" stroke-miterlimit="10"/>
<path d="M87.9788 6.86139C89.5806 6.86139 90.8792 6.19502 90.8792 5.37302C90.8792 4.55101 89.5806 3.88464 87.9788 3.88464C86.3769 3.88464 85.0784 4.55101 85.0784 5.37302C85.0784 6.19502 86.3769 6.86139 87.9788 6.86139Z" fill="#57B894"/>
<path d="M87.6162 6.60602C89.2181 6.60602 90.5166 5.93965 90.5166 5.11765C90.5166 4.29564 89.2181 3.62927 87.6162 3.62927C86.0144 3.62927 84.7158 4.29564 84.7158 5.11765C84.7158 5.93965 86.0144 6.60602 87.6162 6.60602Z" stroke="#3F3D56" stroke-miterlimit="10"/>
<path d="M61.2709 18.6078C62.8727 18.6078 64.1713 17.9415 64.1713 17.1195C64.1713 16.2975 62.8727 15.6311 61.2709 15.6311C59.669 15.6311 58.3705 16.2975 58.3705 17.1195C58.3705 17.9415 59.669 18.6078 61.2709 18.6078Z" fill="#57B894"/>
<path d="M60.9084 18.3525C62.5102 18.3525 63.8088 17.6861 63.8088 16.8641C63.8088 16.0421 62.5102 15.3757 60.9084 15.3757C59.3065 15.3757 58.008 16.0421 58.008 16.8641C58.008 17.6861 59.3065 18.3525 60.9084 18.3525Z" stroke="#3F3D56" stroke-miterlimit="10"/>
<path d="M71.3015 17.8417C72.9033 17.8417 74.2019 17.1754 74.2019 16.3534C74.2019 15.5314 72.9033 14.865 71.3015 14.865C69.6996 14.865 68.4011 15.5314 68.4011 16.3534C68.4011 17.1754 69.6996 17.8417 71.3015 17.8417Z" fill="#57B894"/>
<path d="M70.9389 17.5864C72.5408 17.5864 73.8393 16.9201 73.8393 16.0981C73.8393 15.276 72.5408 14.6097 70.9389 14.6097C69.3371 14.6097 68.0385 15.276 68.0385 16.0981C68.0385 16.9201 69.3371 17.5864 70.9389 17.5864Z" stroke="#3F3D56" stroke-miterlimit="10"/>
<path d="M84.4741 18.9909C86.076 18.9909 87.3745 18.3245 87.3745 17.5025C87.3745 16.6805 86.076 16.0142 84.4741 16.0142C82.8723 16.0142 81.5737 16.6805 81.5737 17.5025C81.5737 18.3245 82.8723 18.9909 84.4741 18.9909Z" fill="#57B894"/>
<path d="M84.1116 18.7355C85.7134 18.7355 87.012 18.0692 87.012 17.2472C87.012 16.4252 85.7134 15.7588 84.1116 15.7588C82.5097 15.7588 81.2112 16.4252 81.2112 17.2472C81.2112 18.0692 82.5097 18.7355 84.1116 18.7355Z" stroke="#3F3D56" stroke-miterlimit="10"/>
<path d="M77.4648 19.5016C79.0666 19.5016 80.3652 18.8352 80.3652 18.0132C80.3652 17.1912 79.0666 16.5248 77.4648 16.5248C75.8629 16.5248 74.5644 17.1912 74.5644 18.0132C74.5644 18.8352 75.8629 19.5016 77.4648 19.5016Z" fill="#57B894"/>
<path d="M77.1022 19.2462C78.7041 19.2462 80.0026 18.5798 80.0026 17.7578C80.0026 16.9358 78.7041 16.2695 77.1022 16.2695C75.5004 16.2695 74.2018 16.9358 74.2018 17.7578C74.2018 18.5798 75.5004 19.2462 77.1022 19.2462Z" stroke="#3F3D56" stroke-miterlimit="10"/>
<path d="M77.9482 6.7337C79.55 6.7337 80.8486 6.06734 80.8486 5.24533C80.8486 4.42333 79.55 3.75696 77.9482 3.75696C76.3463 3.75696 75.0478 4.42333 75.0478 5.24533C75.0478 6.06734 76.3463 6.7337 77.9482 6.7337Z" fill="#57B894"/>
<path d="M77.5856 6.47833C79.1875 6.47833 80.486 5.81196 80.486 4.98996C80.486 4.16795 79.1875 3.50159 77.5856 3.50159C75.9838 3.50159 74.6852 4.16795 74.6852 4.98996C74.6852 5.81196 75.9838 6.47833 77.5856 6.47833Z" stroke="#3F3D56" stroke-miterlimit="10"/>
<path d="M65.5007 14.6498C67.1025 14.6498 68.4011 13.9834 68.4011 13.1614C68.4011 12.3394 67.1025 11.673 65.5007 11.673C63.8988 11.673 62.6003 12.3394 62.6003 13.1614C62.6003 13.9834 63.8988 14.6498 65.5007 14.6498Z" fill="#57B894"/>
<path d="M65.1381 14.3944C66.74 14.3944 68.0385 13.728 68.0385 12.906C68.0385 12.084 66.74 11.4177 65.1381 11.4177C63.5363 11.4177 62.2377 12.084 62.2377 12.906C62.2377 13.728 63.5363 14.3944 65.1381 14.3944Z" stroke="#3F3D56" stroke-miterlimit="10"/>
<path d="M67.1926 20.3953C68.7944 20.3953 70.093 19.729 70.093 18.907C70.093 18.0849 68.7944 17.4186 67.1926 17.4186C65.5907 17.4186 64.2922 18.0849 64.2922 18.907C64.2922 19.729 65.5907 20.3953 67.1926 20.3953Z" fill="#57B894"/>
<path d="M66.83 20.14C68.4319 20.14 69.7304 19.4736 69.7304 18.6516C69.7304 17.8296 68.4319 17.1633 66.83 17.1633C65.2282 17.1633 63.9296 17.8296 63.9296 18.6516C63.9296 19.4736 65.2282 20.14 66.83 20.14Z" stroke="#3F3D56" stroke-miterlimit="10"/>
<g opacity="0.3">
<path d="M67.26 29.0696C67.6694 28.2957 67.7442 27.5164 67.4269 27.3291C67.1097 27.1418 66.5206 27.6173 66.1112 28.3913C65.7018 29.1652 65.627 29.9445 65.9443 30.1318C66.2615 30.3191 66.8506 29.8436 67.26 29.0696Z" fill="#57B894"/>
<path d="M67.0688 29.1866C67.4782 28.4127 67.5529 27.6334 67.2357 27.4461C66.9185 27.2588 66.3294 27.7343 65.92 28.5083C65.5105 29.2822 65.4358 30.0615 65.7531 30.2488C66.0703 30.4361 66.6594 29.9606 67.0688 29.1866Z" stroke="#3F3D56" stroke-miterlimit="10"/>
</g>
<g opacity="0.3">
<path d="M82.3782 32.7798C82.6206 32.4937 82.3101 31.7824 81.6848 31.1911C81.0595 30.5998 80.3561 30.3525 80.1137 30.6386C79.8713 30.9247 80.1818 31.6359 80.8071 32.2272C81.4324 32.8185 82.1358 33.0659 82.3782 32.7798Z" fill="#57B894"/>
<path d="M82.312 32.5571C82.5544 32.271 82.2439 31.5597 81.6186 30.9684C80.9933 30.3771 80.2899 30.1297 80.0475 30.4158C79.8051 30.702 80.1156 31.4132 80.7409 32.0045C81.3662 32.5958 82.0696 32.8432 82.312 32.5571Z" stroke="#3F3D56" stroke-miterlimit="10"/>
</g>
<g opacity="0.3">
<path d="M68.843 24.736C69.0854 24.4499 68.7749 23.7386 68.1496 23.1474C67.5243 22.5561 66.8209 22.3087 66.5785 22.5948C66.3361 22.8809 66.6466 23.5922 67.2719 24.1835C67.8972 24.7747 68.6006 25.0221 68.843 24.736Z" fill="#57B894"/>
<path d="M68.7768 24.5133C69.0191 24.2272 68.7087 23.5159 68.0834 22.9246C67.458 22.3334 66.7546 22.086 66.5123 22.3721C66.2699 22.6582 66.5804 23.3695 67.2057 23.9607C67.831 24.552 68.5344 24.7994 68.7768 24.5133Z" stroke="#3F3D56" stroke-miterlimit="10"/>
</g>
</g>
<defs>
<clipPath id="clip0_104_266">
<rect width="91" height="71" fill="white"/>
</clipPath>
</defs>
</svg>
