<svg width="93" height="88" viewBox="0 0 93 88" fill="none" xmlns="http://www.w3.org/2000/svg">
<g clip-path="url(#clip0_104_323)">
<path d="M72.1324 28.2276C71.9798 28.1775 71.8466 28.0829 71.7511 27.9566C71.6555 27.8303 71.6021 27.6784 71.5981 27.5215C71.5941 27.3647 71.6396 27.2104 71.7287 27.0796C71.8177 26.9489 71.9458 26.8479 72.0957 26.7904L72.2235 26.6152C72.2231 26.5971 72.2226 26.579 72.2222 26.561C72.1736 24.7399 66.1292 27.4736 65.3554 28.8744C65.0137 29.4937 64.7848 30.1661 64.679 30.8616C64.4687 27.3732 65.0307 23.8816 66.3271 20.6234C66.6533 19.8062 67.0262 19.0073 67.4439 18.2306C67.787 17.5941 68.1581 16.9736 68.5571 16.3692C70.7265 13.0915 73.6631 10.3617 77.1257 8.4042C78.4282 8.98132 79.6739 9.2261 80.7908 6.75541C80.9894 6.31591 81.4845 6.05786 81.7355 5.64586C81.6019 5.61391 81.4687 5.57509 81.3384 5.53499C81.298 5.522 81.2555 5.50824 81.2151 5.49527L81.1999 5.49026C81.0577 5.44341 80.9325 5.35753 80.8394 5.24298C80.7462 5.12843 80.6889 4.99008 80.6746 4.84459C80.6603 4.6991 80.6894 4.55267 80.7585 4.42293C80.8276 4.29319 80.9337 4.18567 81.0641 4.11332C81.1452 4.06834 81.2264 4.02341 81.3076 3.97851C81.4315 3.90861 81.5567 3.84155 81.6806 3.77167C81.6941 3.76568 81.7072 3.75894 81.7198 3.75148C81.8619 3.67213 82.0032 3.5948 82.1453 3.51544C82.076 3.1846 81.9292 2.87381 81.7163 2.60731C80.9747 1.69513 79.4979 1.57228 78.4659 2.15561C77.4318 2.73814 76.8261 3.87576 76.6453 5.02485C76.5235 6.01477 76.5755 7.01766 76.7992 7.99056C76.7211 8.03576 76.6418 8.07814 76.5638 8.12336C75.135 8.9551 73.7933 9.92123 72.558 11.0079C73.3533 9.58477 73.1073 3.26319 72.6342 1.76455C72.0659 -0.035515 69.5331 -0.304182 68.6391 1.36564C68.6304 1.38182 68.6218 1.398 68.6133 1.41417C68.7212 1.54257 68.8243 1.67453 68.9226 1.81005C69.0457 1.98139 69.1128 2.18496 69.1151 2.39409C69.1174 2.60321 69.0548 2.80813 68.9355 2.98201C68.8162 3.15588 68.6458 3.2906 68.4465 3.3685C68.2473 3.44641 68.0285 3.46387 67.8189 3.4186L67.7975 3.41396C64.9182 5.28643 68.1745 14.2356 70.2607 13.2944C68.7907 14.959 67.5492 16.8028 66.5673 18.7793C65.992 19.9469 65.5146 21.1579 65.1397 22.4005L65.1505 22.3555C65.8669 19.6112 61.7619 13.5709 59.9792 13.2686C58.9522 13.0944 58.0312 12.6963 57.802 13.6869C57.7983 13.7027 57.7947 13.7185 57.7911 13.7343C58.007 13.9334 58.21 14.1454 58.3989 14.369C58.5068 14.4974 58.6099 14.6294 58.7082 14.7649C58.8313 14.9363 58.8984 15.1398 58.9007 15.349C58.903 15.5581 58.8404 15.763 58.7211 15.9369C58.6018 16.1108 58.4314 16.2455 58.2321 16.3234C58.0329 16.4013 57.8141 16.4187 57.6045 16.3735L57.5831 16.3688C57.5677 16.3653 57.5543 16.3626 57.539 16.3591C55.5683 18.8634 59.9953 25.7891 64.3728 25.7791L64.3749 25.7798C64.1147 27.5159 64.0405 29.2735 64.1533 31.0245L69.9666 33.2284C70.0126 33.1734 70.0573 33.1156 70.1012 33.0597C69.55 32.8887 69.0223 32.6525 68.5299 32.3566C69.1672 32.0045 69.8061 31.6484 70.4434 31.2964C70.4569 31.2904 70.47 31.2837 70.4827 31.2762C70.8069 31.0954 71.1324 30.9172 71.4566 30.7363L71.4568 30.7361C71.7916 29.9317 72.0187 29.0887 72.1325 28.2278L72.1324 28.2276ZM70.5721 12.9473L70.5767 12.9445L70.5704 12.9514L70.5721 12.9473ZM64.7666 23.7666L64.7604 23.638C64.7941 23.5596 64.8258 23.4805 64.8561 23.3985C64.865 23.3762 64.8698 23.3523 64.8787 23.3299C64.8415 23.4771 64.8022 23.6235 64.7671 23.7714L64.7666 23.7666Z" fill="#F1F2F2"/>
<path d="M62.9758 29.2468C62.8373 13.2165 49.4597 0.260966 32.9723 0.252141C16.3425 0.243315 2.92737 13.5317 2.92737 29.7234V82.8189C2.92737 84.1897 3.48639 85.5044 4.48146 86.4737C5.47653 87.443 6.82613 87.9876 8.23337 87.9876H62.9758C79.5577 87.9876 93 74.6412 93 58.4886C93 42.336 79.5577 29.2468 62.9758 29.2468Z" fill="#00C880"/>
<path opacity="0.1" d="M62.9758 28.9947C62.8373 12.9644 49.4597 0.00881766 32.9723 0C23.9573 0 15.8896 3.90042 10.3868 10.0561C15.5967 6.14239 21.993 4.02424 28.5722 4.03404C45.0596 4.04286 58.4372 16.9984 58.5757 33.0287C75.1576 33.0287 88.5999 46.123 88.5999 62.2755C88.6098 69.3211 85.9989 76.1315 81.2504 81.4461C84.9077 78.7178 87.8702 75.2051 89.9079 71.1808C91.9456 67.1564 93.0037 62.7287 93 58.2415C93 42.0889 79.5577 28.9947 62.9758 28.9947Z" fill="black"/>
<path d="M34.9664 46.9353C33.7428 43.1367 30.9602 39.6527 27.112 38.3685C23.2636 37.0844 17.6286 39.0406 14.7354 41.8493C9.44327 46.9869 9.17386 65.8153 12.8098 71.3928C13.533 71.3556 16.0284 71.328 16.7604 71.3013L17.7958 67.9395V71.2681C23.509 71.0961 29.8679 75.6736 35.408 71.3152C35.9414 67.3662 36.19 50.734 34.9664 46.9353Z" fill="#2F2E41"/>
<path d="M26.6256 58.8542C31.1838 58.8542 34.8789 55.2547 34.8789 50.8146C34.8789 46.3744 31.1838 42.775 26.6256 42.775C22.0674 42.775 18.3723 46.3744 18.3723 50.8146C18.3723 55.2547 22.0674 58.8542 26.6256 58.8542Z" fill="#FFB7B7"/>
<path d="M32.2966 40.3456C29.1439 38.4733 24.9422 38.4193 21.7397 40.21C18.5375 42.0006 16.4664 45.5622 16.536 49.1584C21.1494 49.3651 25.9347 53.5856 30.9097 49.4282L32.0711 46.6595L32.7557 49.4302C34.2531 49.4301 35.7533 49.4282 37.2563 49.4245C37.4235 45.8313 35.4495 42.2178 32.2966 40.3456Z" fill="#2F2E41"/>
<path d="M34.1392 45.7971C36.0332 42.2691 39.4044 39.3194 43.4251 38.7185C44.4833 38.5784 45.559 38.6313 46.5973 38.8746C52.5175 40.1688 56.2212 45.9175 55.064 51.7193C54.8345 52.8702 54.5664 54.0609 54.3749 55.383C54.3083 55.8348 54.1469 56.2684 53.9005 56.6567C53.6542 57.045 53.3284 57.3797 52.9433 57.6398C52.5583 57.8999 52.1223 58.0799 51.6627 58.1686C51.203 58.2572 50.7295 58.2526 50.2718 58.1549L50.2498 58.1503L49.2367 57.9393C46.2258 57.3182 42.7807 58.0201 39.5143 57.9817C34.6458 57.9245 31.2242 53.2953 32.7765 48.8001C33.1487 47.7656 33.6043 46.7615 34.1392 45.7971Z" fill="#E6E7E8"/>
<path d="M41.6442 59.0917C46.2024 59.0917 49.8975 55.4922 49.8975 51.0521C49.8975 46.6119 46.2024 43.0125 41.6442 43.0125C37.086 43.0125 33.3909 46.6119 33.3909 51.0521C33.3909 55.4922 37.086 59.0917 41.6442 59.0917Z" fill="#FFB7B7"/>
<path d="M37.9633 39.7711C41.4062 38.4715 45.5515 39.1422 48.3784 41.4564C51.205 43.7705 52.5969 47.6327 51.8754 51.1603C47.2973 50.5689 41.8211 53.8985 37.6793 48.9495L37.039 46.0243L35.862 48.6335C34.3883 48.3754 32.9121 48.115 31.4334 47.8525C31.9212 44.2871 34.5202 41.0707 37.9633 39.7711Z" fill="#E6E7E8"/>
<path d="M61.4311 59.5689C61.0459 59.2721 60.5985 59.0611 60.1205 58.9509C59.6425 58.8407 59.1456 58.8339 58.6646 58.9311C58.1836 59.0282 57.7304 59.2269 57.3368 59.5131C56.9431 59.7993 56.6187 60.1661 56.3864 60.5877L33.09 68.5606L35.4017 73.3463L57.955 65.1587C58.7079 65.492 59.5601 65.5446 60.3502 65.3067C61.1403 65.0688 61.8133 64.5568 62.2418 63.8678C62.6703 63.1788 62.8244 62.3606 62.675 61.5683C62.5256 60.776 62.083 60.0646 61.4311 59.5689Z" fill="#FFB6B6"/>
<path d="M36.5371 64.8264L33.0955 66.2769L31.2562 67.053L30.056 67.5579C29.5475 67.689 29.0718 67.9197 28.6579 68.2359C27.9497 68.7751 27.4539 69.5357 27.2542 70.3895C27.0544 71.2433 27.1629 72.138 27.5613 72.923C27.9597 73.7079 28.6237 74.3351 29.4414 74.6989C30.2591 75.0626 31.1805 75.1407 32.0504 74.9199L39.0942 74.1359C39.2944 74.1129 39.4873 74.0483 39.6596 73.9464C39.832 73.8445 39.9799 73.7077 40.0933 73.5453C40.3258 73.214 42.5003 72.2159 42.3952 71.8289L43.3257 71.4133L44.676 71.0012L49.7459 68.7292L48.9793 65.9675L49.6885 62.5774C49.5824 62.195 38.0788 65.0205 37.7111 64.8515C37.5289 64.7648 37.3296 64.7176 37.1269 64.7133C36.9242 64.709 36.723 64.7475 36.5371 64.8264Z" fill="#3F3D56"/>
<path d="M46.4019 87.5823H14.2249C12.8899 87.5823 11.6097 87.0657 10.6657 86.1462C9.72178 85.2267 9.19147 83.9796 9.19147 82.6792V71.1398C9.19147 69.8394 9.72178 68.5923 10.6657 67.6728C11.6097 66.7533 12.8899 66.2367 14.2249 66.2367L18.3411 60.5872H32.7091L46.4019 66.2367C47.0629 66.2367 47.7174 66.3635 48.3281 66.61C48.9388 66.8564 49.4937 67.2175 49.9611 67.6728C50.4285 68.1281 50.7992 68.6686 51.0522 69.2635C51.3052 69.8584 51.4353 70.4959 51.4353 71.1398V82.6792C51.4353 83.3231 51.3052 83.9607 51.0522 84.5555C50.7992 85.1504 50.4285 85.6909 49.9611 86.1462C49.4937 86.6015 48.9388 86.9627 48.3281 87.2091C47.7174 87.4555 47.0629 87.5823 46.4019 87.5823Z" fill="#3F3D56"/>
<path d="M57.9215 87.5823H29.1423C28.4813 87.5823 27.8268 87.4555 27.2161 87.2091C26.6054 86.9627 26.0505 86.6015 25.5831 86.1462C25.1157 85.6909 24.745 85.1504 24.492 84.5555C24.2391 83.9607 24.1089 83.3231 24.1089 82.6792V71.1398C24.1089 69.8394 24.6392 68.5923 25.5831 67.6728C26.5271 66.7533 27.8074 66.2367 29.1423 66.2367L36.7204 60.5872H51.0883L57.9215 66.2367C59.2564 66.2367 60.5367 66.7533 61.4807 67.6728C62.4246 68.5923 62.9549 69.8394 62.9549 71.1398V82.6792C62.9549 83.9796 62.4246 85.2267 61.4807 86.1462C60.5367 87.0657 59.2564 87.5823 57.9215 87.5823Z" fill="#2F2E41"/>
<path d="M32.0615 86.1514C31.7899 86.5279 31.4368 86.8418 31.0272 87.071C30.6175 87.3002 30.1613 87.4392 29.6906 87.478C29.2198 87.5169 28.7461 87.4547 28.3027 87.296C27.8593 87.1372 27.457 86.8856 27.1242 86.559L7.02142 87.1922L4.45106 87.2732C1.80719 87.3564 0.284279 84.3768 1.94601 82.3719L3.73148 80.2178L10.1176 81.1935L12.4267 81.292L27.2842 81.9263C27.8845 81.418 28.6553 81.1419 29.4507 81.1503C30.246 81.1587 31.0105 81.451 31.5994 81.9718C32.1883 82.4926 32.5606 83.2058 32.6457 83.9761C32.7309 84.7464 32.523 85.5204 32.0615 86.1514Z" fill="#FFB6B6"/>
<path d="M14.3288 61.7451C14.3288 61.7451 10.4969 60.798 8.68058 63.8447C7.22651 66.2838 2.28021 75.5088 1.25342 79.295C-3.75659 91.0562 7.89184 86.3726 7.56592 87.4821L11.4629 81.2509C13.1562 80.4262 9.89683 81.4906 9.46747 80.8993L12.4547 77.7366L15.8413 76.0872L17.0839 63.1736L14.3288 61.7451Z" fill="#3F3D56"/>
<path d="M28.3767 86.643C28.6483 87.0195 29.0014 87.3334 29.4111 87.5626C29.8207 87.7918 30.2769 87.9307 30.7477 87.9696C31.2184 88.0085 31.6921 87.9463 32.1355 87.7875C32.5789 87.6287 32.9812 87.3772 33.314 87.0506L53.4168 87.6838L55.9872 87.7647C58.631 87.848 60.1539 84.8684 58.4922 82.8635L56.7068 80.7094L50.3207 81.685L48.0115 81.7836L33.1541 82.4179C32.5537 81.9096 31.7829 81.6335 30.9876 81.6419C30.1922 81.6503 29.4277 81.9426 28.8388 82.4634C28.25 82.9842 27.8777 83.6973 27.7925 84.4677C27.7073 85.238 27.9152 86.012 28.3767 86.643Z" fill="#FFB6B6"/>
<path d="M46.1094 62.2367C46.1094 62.2367 49.9414 61.2896 51.7577 64.3363C53.2117 66.7754 58.158 76.0004 59.1848 79.7866C64.1948 91.5478 52.5464 86.8642 52.8723 87.9736L48.9753 81.7425C47.282 80.9178 50.5414 81.9822 50.9708 81.3908L47.9835 78.2282L44.597 76.5788L43.3544 63.6651L46.1094 62.2367Z" fill="#2F2E41"/>
</g>
<defs>
<clipPath id="clip0_104_323">
<rect width="93" height="88" fill="white"/>
</clipPath>
</defs>
</svg>
