<svg width="115" height="64" viewBox="0 0 115 64" fill="none" xmlns="http://www.w3.org/2000/svg">
<g clip-path="url(#clip0_104_148)">
<path d="M15.4644 33.3578H11.784C11.6546 33.3578 11.5305 33.4102 11.439 33.5033C11.3475 33.5965 11.2961 33.7228 11.2961 33.8545V35.4989C11.2961 35.6306 11.3475 35.757 11.439 35.8501C11.5305 35.9433 11.6546 35.9956 11.784 35.9956H12.3939V38.4594H14.8545V35.9956H15.4644C15.5938 35.9956 15.7179 35.9433 15.8094 35.8501C15.9009 35.757 15.9523 35.6306 15.9523 35.4989V33.8545C15.9523 33.7228 15.9009 33.5965 15.8094 33.5033C15.7179 33.4102 15.5938 33.3578 15.4644 33.3578Z" fill="#00C880"/>
<path d="M19.1507 48.4072C16.8967 45.0499 15.7444 41.0526 15.8589 36.9879C15.861 36.8941 15.8311 36.8025 15.7743 36.7286C15.7175 36.6547 15.6374 36.6031 15.5474 36.5825V35.872H11.6605V36.5727H11.6069C11.5521 36.5727 11.4979 36.5843 11.4477 36.6067C11.3974 36.629 11.3523 36.6617 11.315 36.7026C11.2777 36.7435 11.2491 36.7918 11.231 36.8445C11.2129 36.8972 11.2057 36.9531 11.2097 37.0087C11.5159 41.3539 10.4819 45.2505 8.10762 48.6986C7.97099 48.8968 7.90119 49.1347 7.90869 49.3767L8.33371 62.7594C8.34392 63.0579 8.467 63.3409 8.67725 63.5492C8.8875 63.7575 9.16867 63.8752 9.46208 63.8775H18.2538C18.5506 63.8751 18.8346 63.7548 19.0455 63.5422C19.2564 63.3297 19.3775 63.0417 19.3828 62.7397L19.5466 49.7462C19.5515 49.2692 19.4134 48.8022 19.1507 48.4072Z" fill="#3F3D56"/>
<path opacity="0.2" d="M14.6972 33.8937C14.6972 34.1779 14.5863 34.4504 14.3888 34.6514C14.1914 34.8524 13.9237 34.9653 13.6445 34.9653C13.3653 34.9653 13.0975 34.8524 12.9001 34.6514C12.7026 34.4504 12.5917 34.1779 12.5917 33.8937" fill="black"/>
<path d="M17.759 52.8525H16.6944C16.5927 52.1812 16.2584 51.569 15.7519 51.1268C15.2453 50.6846 14.6001 50.4415 13.9328 50.4415C13.2654 50.4415 12.6202 50.6846 12.1136 51.1268C11.6071 51.569 11.2728 52.1812 11.1711 52.8525H10.1065C9.99319 52.8525 9.88125 52.8775 9.77833 52.9256C9.67541 52.9738 9.58393 53.044 9.51017 53.1316C9.43642 53.2191 9.38212 53.3218 9.35101 53.4327C9.3199 53.5435 9.31271 53.6599 9.32994 53.7739L10.4863 61.4252H17.1266L18.5312 53.7997C18.5525 53.6842 18.5485 53.5653 18.5195 53.4516C18.4905 53.3378 18.4373 53.232 18.3635 53.1415C18.2898 53.0511 18.1974 52.9783 18.0929 52.9284C17.9884 52.8784 17.8744 52.8525 17.759 52.8525Z" fill="#00C880"/>
<path d="M107.224 40.5541L106.968 50.9439L106.652 63.8276H95.8869L95.5163 48.7327L95.3153 40.5541H107.224Z" fill="#E6E6E6"/>
<path d="M101.984 35.0266H100.46V55.5849H101.984V35.0266Z" fill="#00C880"/>
<path d="M106.461 48.3827L106.173 63.1499H96.3609L96.0231 45.8486C96.9071 45.5958 97.8328 45.5311 98.7425 45.6585C99.6521 45.7858 100.526 46.1025 101.31 46.5888C102.95 47.5758 104.792 48.1071 106.461 48.3827Z" fill="#3F3D56"/>
<path d="M98.79 50.0451H97.3914V51.4688H98.79V50.0451Z" fill="#E6E6E6"/>
<path d="M99.7426 47.1359H98.344V48.5596H99.7426V47.1359Z" fill="#E6E6E6"/>
<path d="M102.746 49.1499L101.623 48.3018L100.789 49.4453L101.913 50.2934L102.746 49.1499Z" fill="#E6E6E6"/>
<path d="M105.273 51.6724L104.15 50.8243L103.316 51.9679L104.44 52.816L105.273 51.6724Z" fill="#E6E6E6"/>
<path d="M100.986 53.127L99.8627 52.2789L99.0295 53.4225L100.153 54.2706L100.986 53.127Z" fill="#E6E6E6"/>
<path d="M104.27 46.5664C104.428 46.5664 104.556 46.4361 104.556 46.2755C104.556 46.1148 104.428 45.9846 104.27 45.9846C104.112 45.9846 103.984 46.1148 103.984 46.2755C103.984 46.4361 104.112 46.5664 104.27 46.5664Z" fill="#3F3D56"/>
<path d="M98.4591 44.6269C98.6169 44.6269 98.7449 44.4967 98.7449 44.336C98.7449 44.1754 98.6169 44.0451 98.4591 44.0451C98.3012 44.0451 98.1733 44.1754 98.1733 44.336C98.1733 44.4967 98.3012 44.6269 98.4591 44.6269Z" fill="#3F3D56"/>
<path d="M103.318 42.5905C103.475 42.5905 103.603 42.4603 103.603 42.2996C103.603 42.1389 103.475 42.0087 103.318 42.0087C103.16 42.0087 103.032 42.1389 103.032 42.2996C103.032 42.4603 103.16 42.5905 103.318 42.5905Z" fill="#3F3D56"/>
<path d="M57.5658 63.7389C74.8569 63.7389 88.874 49.4704 88.874 31.8694C88.874 14.2684 74.8569 0 57.5658 0C40.2747 0 26.2576 14.2684 26.2576 31.8694C26.2576 49.4704 40.2747 63.7389 57.5658 63.7389Z" fill="#00C880"/>
<path opacity="0.2" d="M57.5658 55.131C52.2789 55.131 47.1556 53.2649 43.0688 49.8508C38.982 46.4367 36.1846 41.6858 35.1532 36.4075C34.1218 31.1293 34.9202 25.6503 37.4124 20.9041C39.9047 16.1579 43.9365 12.4382 48.821 10.3787C53.7054 8.31929 59.1403 8.04752 64.1995 9.60975C69.2587 11.172 73.6293 14.4715 76.5666 18.9462C79.5038 23.4209 80.8259 28.7939 80.3077 34.1496C79.7895 39.5053 77.463 44.5125 73.7246 48.3179C71.6075 50.4847 69.0893 52.2025 66.3156 53.372C63.5419 54.5415 60.568 55.1394 57.5658 55.131ZM57.5658 10.0424C45.7423 10.0424 36.1232 19.834 36.1232 31.8694C36.1232 43.9048 45.7423 53.6964 57.5658 53.6964C69.3892 53.6964 79.0084 43.9048 79.0084 31.8694C79.0084 19.834 69.3892 10.0424 57.5658 10.0424Z" fill="black"/>
<path d="M57.5658 54.4137C69.7974 54.4137 79.7131 44.3203 79.7131 31.8694C79.7131 19.4186 69.7974 9.32513 57.5658 9.32513C45.3342 9.32513 35.4185 19.4186 35.4185 31.8694C35.4185 44.3203 45.3342 54.4137 57.5658 54.4137Z" fill="#3F3D56"/>
<path d="M41.0953 22.8549C40.9274 22.52 40.8259 22.1547 40.7967 21.7799C40.7675 21.4051 40.8112 21.0281 40.9252 20.6705C41.0392 20.3129 41.2214 19.9817 41.4613 19.6958C41.7011 19.4098 41.994 19.1749 42.3232 19.0042C42.6523 18.8336 43.0113 18.7307 43.3795 18.7014C43.7477 18.6721 44.118 18.7169 44.4692 18.8334C44.8204 18.9498 45.1457 19.1356 45.4263 19.3801C45.7069 19.6246 45.9374 19.9229 46.1047 20.2582L52.3619 32.7656C52.5298 33.1004 52.6313 33.4657 52.6605 33.8405C52.6897 34.2153 52.646 34.5923 52.532 34.9499C52.418 35.3076 52.2358 35.6388 51.9959 35.9247C51.7561 36.2106 51.4632 36.4456 51.134 36.6162C50.8049 36.7868 50.4459 36.8897 50.0777 36.9191C49.7095 36.9484 49.3392 36.9035 48.988 36.7871C48.6368 36.6706 48.3116 36.4848 48.0309 36.2404C47.7503 35.9959 47.5198 35.6975 47.3525 35.3623L41.0953 22.8549Z" fill="#FF6584"/>
<path opacity="0.2" d="M41.7933 24.25L41.5045 23.6727C42.9457 22.5328 44.6382 21.6944 46.5138 21.076L46.8026 21.6533C44.7726 22.0836 43.0455 22.8799 41.7933 24.25Z" fill="black"/>
<path opacity="0.2" d="M43.141 26.9439L42.8522 26.3666C44.2934 25.2267 45.9859 24.3883 47.8616 23.7699L48.1504 24.3472C46.1203 24.7775 44.3932 25.5738 43.141 26.9439Z" fill="black"/>
<path opacity="0.2" d="M44.4886 29.6377L44.1998 29.0605C45.6411 27.9205 47.3336 27.0822 49.2092 26.4637L49.498 27.041C47.468 27.4713 45.7409 28.2677 44.4886 29.6377Z" fill="black"/>
<path opacity="0.2" d="M45.8363 32.3316L45.5475 31.7544C46.9888 30.6144 48.6813 29.7761 50.5569 29.1577L50.8457 29.7349C48.8157 30.1652 47.0886 30.9616 45.8363 32.3316Z" fill="black"/>
<path opacity="0.2" d="M47.1841 35.0256L46.8953 34.4483C48.3365 33.3083 50.029 32.47 51.9047 31.8516L52.1934 32.4288C50.1634 32.8591 48.4363 33.6555 47.1841 35.0256Z" fill="black"/>
<path d="M36.401 27.5372C36.2331 27.2024 36.1317 26.8371 36.1025 26.4623C36.0734 26.0875 36.1171 25.7106 36.2311 25.353C36.3451 24.9954 36.5273 24.6642 36.7672 24.3783C37.007 24.0924 37.2999 23.8575 37.629 23.6869C37.9581 23.5163 38.3171 23.4133 38.6853 23.384C39.0535 23.3547 39.4238 23.3995 39.775 23.516C40.1261 23.6324 40.4513 23.8181 40.732 24.0626C41.0126 24.307 41.2431 24.6053 41.4104 24.9405L47.6676 37.4479C48.005 38.124 48.0648 38.9088 47.8341 39.6298C47.6034 40.3508 47.1009 40.9491 46.4371 41.2932C45.7732 41.6373 45.0024 41.6991 44.2938 41.465C43.5852 41.2309 42.997 40.72 42.6582 40.0447L36.401 27.5372Z" fill="#FF6584"/>
<path opacity="0.2" d="M37.0989 28.9323L36.8101 28.355C38.2514 27.2151 39.9439 26.3767 41.8195 25.7583L42.1083 26.3356C40.0783 26.7659 38.3512 27.5622 37.0989 28.9323Z" fill="black"/>
<path opacity="0.2" d="M38.4466 31.6262L38.1578 31.0489C39.5991 29.909 41.2916 29.0706 43.1672 28.4522L43.456 29.0295C41.426 29.4598 39.6989 30.2561 38.4466 31.6262Z" fill="black"/>
<path opacity="0.2" d="M39.7944 34.3201L39.5056 33.7429C40.9468 32.6029 42.6393 31.7645 44.5149 31.1461L44.8037 31.7234C42.7737 32.1537 41.0466 32.9501 39.7944 34.3201Z" fill="black"/>
<path opacity="0.2" d="M41.142 37.014L40.8532 36.4368C42.2945 35.2968 43.9869 34.4584 45.8626 33.84L46.1514 34.4173C44.1214 34.8476 42.3943 35.644 41.142 37.014Z" fill="black"/>
<path opacity="0.2" d="M42.4897 39.7079L42.2009 39.1307C43.6422 37.9907 45.3347 37.1524 47.2103 36.5339L47.4991 37.1112C45.4691 37.5415 43.742 38.3379 42.4897 39.7079Z" fill="black"/>
<path d="M72.3642 32.5867L72.384 32.5867C73.0579 32.5925 73.718 32.3914 74.2779 32.0095C74.8379 31.6277 75.2718 31.083 75.5231 30.4464C76.0398 29.1167 76.3003 27.6982 76.2901 26.2683C76.255 20.2161 71.4179 15.251 65.4727 15.1672C62.9408 15.1312 60.4745 15.9874 58.4919 17.5909C56.5094 19.1943 55.1325 21.4463 54.5947 23.9651C54.057 26.4839 54.3914 29.1144 55.5413 31.4109C56.6913 33.7073 58.5859 35.5283 60.9042 36.5652C61.5168 36.8413 62.1971 36.9225 62.8559 36.7982C63.5147 36.6738 64.1212 36.3498 64.5958 35.8684C65.6139 34.8267 66.8245 34.0003 68.1577 33.4371C69.491 32.8739 70.9207 32.5848 72.3642 32.5867Z" fill="#E6E6E6"/>
<path d="M66.7267 29.2051C68.7282 29.2051 70.3508 27.5534 70.3508 25.516C70.3508 23.4786 68.7282 21.827 66.7267 21.827C64.7252 21.827 63.1026 23.4786 63.1026 25.516C63.1026 27.5534 64.7252 29.2051 66.7267 29.2051Z" fill="#F9A825"/>
<path d="M58.8503 25.1012C59.0861 25.1012 59.2772 24.9067 59.2772 24.6666C59.2772 24.4266 59.0861 24.2321 58.8503 24.2321C58.6145 24.2321 58.4233 24.4266 58.4233 24.6666C58.4233 24.9067 58.6145 25.1012 58.8503 25.1012Z" fill="#3F3D56"/>
<path d="M44.7565 25.5111C44.9923 25.5111 45.1835 25.3165 45.1835 25.0765C45.1835 24.8365 44.9923 24.6419 44.7565 24.6419C44.5207 24.6419 44.3296 24.8365 44.3296 25.0765C44.3296 25.3165 44.5207 25.5111 44.7565 25.5111Z" fill="#3F3D56"/>
<path d="M61.1256 20.5973C61.3614 20.5973 61.5525 20.4027 61.5525 20.1627C61.5525 19.9227 61.3614 19.7281 61.1256 19.7281C60.8898 19.7281 60.6987 19.9227 60.6987 20.1627C60.6987 20.4027 60.8898 20.5973 61.1256 20.5973Z" fill="#3F3D56"/>
<path d="M61.1135 33.1238C61.3493 33.1238 61.5404 32.9292 61.5404 32.6892C61.5404 32.4492 61.3493 32.2546 61.1135 32.2546C60.8777 32.2546 60.6865 32.4492 60.6865 32.6892C60.6865 32.9292 60.8777 33.1238 61.1135 33.1238Z" fill="#3F3D56"/>
<path d="M69.5698 19.6997C69.8055 19.6997 69.9967 19.5051 69.9967 19.2651C69.9967 19.0251 69.8055 18.8305 69.5698 18.8305C69.334 18.8305 69.1428 19.0251 69.1428 19.2651C69.1428 19.5051 69.334 19.6997 69.5698 19.6997Z" fill="#3F3D56"/>
<path d="M41.9863 31.5867C42.2221 31.5867 42.4132 31.3921 42.4132 31.1521C42.4132 30.9121 42.2221 30.7175 41.9863 30.7175C41.7505 30.7175 41.5593 30.9121 41.5593 31.1521C41.5593 31.3921 41.7505 31.5867 41.9863 31.5867Z" fill="#3F3D56"/>
<path d="M45.1071 37.8376C45.3428 37.8376 45.534 37.6431 45.534 37.403C45.534 37.163 45.3428 36.9684 45.1071 36.9684C44.8713 36.9684 44.6801 37.163 44.6801 37.403C44.6801 37.6431 44.8713 37.8376 45.1071 37.8376Z" fill="#3F3D56"/>
<path d="M64.7133 39.8624C65.6029 39.8624 66.324 39.1284 66.324 38.2228C66.324 37.3173 65.6029 36.5833 64.7133 36.5833C63.8237 36.5833 63.1026 37.3173 63.1026 38.2228C63.1026 39.1284 63.8237 39.8624 64.7133 39.8624Z" fill="#FF6584"/>
<path opacity="0.2" d="M65.9214 38.3253C65.9214 38.6515 65.7941 38.9642 65.5675 39.1948C65.341 39.4254 65.0337 39.555 64.7133 39.555C64.393 39.555 64.0857 39.4254 63.8591 39.1948C63.6326 38.9642 63.5053 38.6515 63.5053 38.3253" fill="black"/>
<path opacity="0.2" d="M63.5053 38.1203C63.5053 37.7942 63.6326 37.4814 63.8591 37.2508C64.0857 37.0202 64.393 36.8906 64.7133 36.8906C65.0337 36.8906 65.341 37.0202 65.5675 37.2508C65.7941 37.4814 65.9214 37.7942 65.9214 38.1203" fill="black"/>
<path d="M64.1093 37.8129C64.1649 37.8129 64.21 37.7441 64.21 37.6592C64.21 37.5743 64.1649 37.5055 64.1093 37.5055C64.0537 37.5055 64.0087 37.5743 64.0087 37.6592C64.0087 37.7441 64.0537 37.8129 64.1093 37.8129Z" fill="#FF6584"/>
<path d="M64.7133 37.608C64.7689 37.608 64.814 37.5391 64.814 37.4542C64.814 37.3694 64.7689 37.3005 64.7133 37.3005C64.6577 37.3005 64.6127 37.3694 64.6127 37.4542C64.6127 37.5391 64.6577 37.608 64.7133 37.608Z" fill="#FF6584"/>
<path d="M64.7133 38.9401C64.7689 38.9401 64.814 38.8713 64.814 38.7864C64.814 38.7015 64.7689 38.6327 64.7133 38.6327C64.6577 38.6327 64.6127 38.7015 64.6127 38.7864C64.6127 38.8713 64.6577 38.9401 64.7133 38.9401Z" fill="#FF6584"/>
<path d="M65.3173 38.1203C65.3729 38.1203 65.418 38.0515 65.418 37.9666C65.418 37.8817 65.3729 37.8129 65.3173 37.8129C65.2617 37.8129 65.2167 37.8817 65.2167 37.9666C65.2167 38.0515 65.2617 38.1203 65.3173 38.1203Z" fill="#FF6584"/>
<path d="M65.2167 39.2476C65.2723 39.2476 65.3174 39.1787 65.3174 39.0938C65.3174 39.0089 65.2723 38.9401 65.2167 38.9401C65.1611 38.9401 65.116 39.0089 65.116 39.0938C65.116 39.1787 65.1611 39.2476 65.2167 39.2476Z" fill="#FF6584"/>
<path d="M64.0086 38.7352C64.0642 38.7352 64.1093 38.6663 64.1093 38.5814C64.1093 38.4966 64.0642 38.4277 64.0086 38.4277C63.953 38.4277 63.908 38.4966 63.908 38.5814C63.908 38.6663 63.953 38.7352 64.0086 38.7352Z" fill="#FF6584"/>
<path d="M67.9347 35.456C68.8243 35.456 69.5455 34.722 69.5455 33.8165C69.5455 32.9109 68.8243 32.1769 67.9347 32.1769C67.0452 32.1769 66.324 32.9109 66.324 33.8165C66.324 34.722 67.0452 35.456 67.9347 35.456Z" fill="#FF6584"/>
<path opacity="0.2" d="M69.1428 33.9189C69.1428 34.245 69.0155 34.5578 68.789 34.7884C68.5624 35.019 68.2552 35.1486 67.9348 35.1486C67.6144 35.1486 67.3071 35.019 67.0806 34.7884C66.854 34.5578 66.7267 34.245 66.7267 33.9189" fill="black"/>
<path opacity="0.2" d="M66.7267 33.7139C66.7267 33.3878 66.854 33.075 67.0806 32.8444C67.3071 32.6138 67.6144 32.4843 67.9348 32.4843C68.2552 32.4843 68.5624 32.6138 68.789 32.8444C69.0155 33.075 69.1428 33.3878 69.1428 33.7139" fill="black"/>
<path d="M67.3308 33.4065C67.3864 33.4065 67.4314 33.3377 67.4314 33.2528C67.4314 33.1679 67.3864 33.0991 67.3308 33.0991C67.2752 33.0991 67.2301 33.1679 67.2301 33.2528C67.2301 33.3377 67.2752 33.4065 67.3308 33.4065Z" fill="#FF6584"/>
<path d="M67.9348 33.2016C67.9904 33.2016 68.0354 33.1328 68.0354 33.0479C68.0354 32.963 67.9904 32.8942 67.9348 32.8942C67.8792 32.8942 67.8341 32.963 67.8341 33.0479C67.8341 33.1328 67.8792 33.2016 67.9348 33.2016Z" fill="#FF6584"/>
<path d="M67.9348 34.5337C67.9904 34.5337 68.0354 34.4649 68.0354 34.38C68.0354 34.2951 67.9904 34.2263 67.9348 34.2263C67.8792 34.2263 67.8341 34.2951 67.8341 34.38C67.8341 34.4649 67.8792 34.5337 67.9348 34.5337Z" fill="#FF6584"/>
<path d="M68.5388 33.714C68.5944 33.714 68.6394 33.6452 68.6394 33.5603C68.6394 33.4754 68.5944 33.4066 68.5388 33.4066C68.4832 33.4066 68.4381 33.4754 68.4381 33.5603C68.4381 33.6452 68.4832 33.714 68.5388 33.714Z" fill="#FF6584"/>
<path d="M68.4381 34.8412C68.4937 34.8412 68.5388 34.7724 68.5388 34.6875C68.5388 34.6026 68.4937 34.5338 68.4381 34.5338C68.3825 34.5338 68.3375 34.6026 68.3375 34.6875C68.3375 34.7724 68.3825 34.8412 68.4381 34.8412Z" fill="#FF6584"/>
<path d="M67.2301 34.3288C67.2857 34.3288 67.3307 34.26 67.3307 34.1751C67.3307 34.0902 67.2857 34.0214 67.2301 34.0214C67.1745 34.0214 67.1294 34.0902 67.1294 34.1751C67.1294 34.26 67.1745 34.3288 67.2301 34.3288Z" fill="#FF6584"/>
<path d="M71.1562 37.7104C72.0458 37.7104 72.7669 36.9764 72.7669 36.0709C72.7669 35.1653 72.0458 34.4313 71.1562 34.4313C70.2666 34.4313 69.5455 35.1653 69.5455 36.0709C69.5455 36.9764 70.2666 37.7104 71.1562 37.7104Z" fill="#00C880"/>
<path opacity="0.2" d="M72.3642 36.1733C72.3642 36.4995 72.2369 36.8123 72.0104 37.0429C71.7838 37.2735 71.4765 37.403 71.1562 37.403C70.8358 37.403 70.5285 37.2735 70.3019 37.0429C70.0754 36.8123 69.9481 36.4995 69.9481 36.1733" fill="black"/>
<path opacity="0.2" d="M69.9481 35.9684C69.9481 35.6423 70.0754 35.3295 70.3019 35.0989C70.5285 34.8683 70.8358 34.7387 71.1562 34.7387C71.4765 34.7387 71.7838 34.8683 72.0104 35.0989C72.2369 35.3295 72.3642 35.6423 72.3642 35.9684" fill="black"/>
<path d="M70.5521 35.6609C70.6077 35.6609 70.6528 35.5921 70.6528 35.5072C70.6528 35.4223 70.6077 35.3535 70.5521 35.3535C70.4965 35.3535 70.4515 35.4223 70.4515 35.5072C70.4515 35.5921 70.4965 35.6609 70.5521 35.6609Z" fill="#00C880"/>
<path d="M71.1562 35.456C71.2118 35.456 71.2569 35.3872 71.2569 35.3023C71.2569 35.2174 71.2118 35.1486 71.1562 35.1486C71.1006 35.1486 71.0555 35.2174 71.0555 35.3023C71.0555 35.3872 71.1006 35.456 71.1562 35.456Z" fill="#00C880"/>
<path d="M71.1562 36.7882C71.2118 36.7882 71.2569 36.7194 71.2569 36.6345C71.2569 36.5496 71.2118 36.4808 71.1562 36.4808C71.1006 36.4808 71.0555 36.5496 71.0555 36.6345C71.0555 36.7194 71.1006 36.7882 71.1562 36.7882Z" fill="#00C880"/>
<path d="M71.7602 35.9684C71.8158 35.9684 71.8609 35.8996 71.8609 35.8147C71.8609 35.7298 71.8158 35.6609 71.7602 35.6609C71.7046 35.6609 71.6595 35.7298 71.6595 35.8147C71.6595 35.8996 71.7046 35.9684 71.7602 35.9684Z" fill="#00C880"/>
<path d="M71.6595 37.0956C71.7151 37.0956 71.7602 37.0268 71.7602 36.9419C71.7602 36.857 71.7151 36.7882 71.6595 36.7882C71.6039 36.7882 71.5588 36.857 71.5588 36.9419C71.5588 37.0268 71.6039 37.0956 71.6595 37.0956Z" fill="#00C880"/>
<path d="M70.4515 36.5832C70.5071 36.5832 70.5522 36.5144 70.5522 36.4295C70.5522 36.3446 70.5071 36.2758 70.4515 36.2758C70.3959 36.2758 70.3508 36.3446 70.3508 36.4295C70.3508 36.5144 70.3959 36.5832 70.4515 36.5832Z" fill="#00C880"/>
<path d="M63.1027 37.9154C63.9922 37.9154 64.7134 37.1813 64.7134 36.2758C64.7134 35.3703 63.9922 34.6362 63.1027 34.6362C62.2131 34.6362 61.4919 35.3703 61.4919 36.2758C61.4919 37.1813 62.2131 37.9154 63.1027 37.9154Z" fill="#00C880"/>
<path opacity="0.2" d="M64.3107 36.3783C64.3107 36.7044 64.1834 37.0172 63.9568 37.2478C63.7303 37.4784 63.423 37.608 63.1026 37.608C62.7822 37.608 62.475 37.4784 62.2484 37.2478C62.0219 37.0172 61.8946 36.7044 61.8946 36.3783" fill="black"/>
<path opacity="0.2" d="M61.8946 36.1734C61.8946 35.8472 62.0219 35.5344 62.2484 35.3038C62.475 35.0732 62.7822 34.9437 63.1026 34.9437C63.423 34.9437 63.7303 35.0732 63.9568 35.3038C64.1834 35.5344 64.3107 35.8472 64.3107 36.1734" fill="black"/>
<path d="M62.4986 35.8659C62.5542 35.8659 62.5993 35.7971 62.5993 35.7122C62.5993 35.6273 62.5542 35.5585 62.4986 35.5585C62.443 35.5585 62.3979 35.6273 62.3979 35.7122C62.3979 35.7971 62.443 35.8659 62.4986 35.8659Z" fill="#00C880"/>
<path d="M63.1026 35.6609C63.1582 35.6609 63.2033 35.5921 63.2033 35.5072C63.2033 35.4223 63.1582 35.3535 63.1026 35.3535C63.047 35.3535 63.002 35.4223 63.002 35.5072C63.002 35.5921 63.047 35.6609 63.1026 35.6609Z" fill="#00C880"/>
<path d="M63.1026 36.9932C63.1582 36.9932 63.2033 36.9243 63.2033 36.8394C63.2033 36.7545 63.1582 36.6857 63.1026 36.6857C63.047 36.6857 63.002 36.7545 63.002 36.8394C63.002 36.9243 63.047 36.9932 63.1026 36.9932Z" fill="#00C880"/>
<path d="M63.7066 36.1733C63.7622 36.1733 63.8073 36.1045 63.8073 36.0196C63.8073 35.9347 63.7622 35.8659 63.7066 35.8659C63.651 35.8659 63.606 35.9347 63.606 36.0196C63.606 36.1045 63.651 36.1733 63.7066 36.1733Z" fill="#00C880"/>
<path d="M63.606 37.3005C63.6616 37.3005 63.7066 37.2317 63.7066 37.1468C63.7066 37.0619 63.6616 36.9931 63.606 36.9931C63.5504 36.9931 63.5053 37.0619 63.5053 37.1468C63.5053 37.2317 63.5504 37.3005 63.606 37.3005Z" fill="#00C880"/>
<path d="M62.3979 36.7882C62.4535 36.7882 62.4986 36.7194 62.4986 36.6345C62.4986 36.5496 62.4535 36.4808 62.3979 36.4808C62.3423 36.4808 62.2972 36.5496 62.2972 36.6345C62.2972 36.7194 62.3423 36.7882 62.3979 36.7882Z" fill="#00C880"/>
<path d="M66.7267 38.6327C67.6163 38.6327 68.3375 37.8986 68.3375 36.9931C68.3375 36.0876 67.6163 35.3535 66.7267 35.3535C65.8372 35.3535 65.116 36.0876 65.116 36.9931C65.116 37.8986 65.8372 38.6327 66.7267 38.6327Z" fill="#00C880"/>
<path opacity="0.2" d="M67.9347 37.0956C67.9347 37.2571 67.9035 37.417 67.8428 37.5662C67.7821 37.7154 67.6931 37.8509 67.5809 37.9651C67.4687 38.0793 67.3356 38.1699 67.189 38.2317C67.0424 38.2935 66.8854 38.3253 66.7267 38.3253C66.5681 38.3253 66.411 38.2935 66.2644 38.2317C66.1179 38.1699 65.9847 38.0793 65.8725 37.9651C65.7603 37.8509 65.6713 37.7154 65.6106 37.5662C65.5499 37.417 65.5187 37.2571 65.5187 37.0956" fill="black"/>
<path opacity="0.2" d="M65.5187 36.8906C65.5187 36.7292 65.5499 36.5693 65.6106 36.4201C65.6713 36.2709 65.7603 36.1353 65.8725 36.0211C65.9847 35.9069 66.1179 35.8164 66.2644 35.7546C66.411 35.6928 66.5681 35.6609 66.7267 35.6609C66.8854 35.6609 67.0424 35.6928 67.189 35.7546C67.3356 35.8164 67.4687 35.9069 67.5809 36.0211C67.6931 36.1353 67.7821 36.2709 67.8428 36.4201C67.9035 36.5693 67.9347 36.7292 67.9347 36.8906" fill="black"/>
<path d="M66.1227 36.5832C66.1783 36.5832 66.2234 36.5144 66.2234 36.4295C66.2234 36.3446 66.1783 36.2758 66.1227 36.2758C66.0671 36.2758 66.022 36.3446 66.022 36.4295C66.022 36.5144 66.0671 36.5832 66.1227 36.5832Z" fill="#00C880"/>
<path d="M66.7267 36.3783C66.7823 36.3783 66.8274 36.3095 66.8274 36.2246C66.8274 36.1397 66.7823 36.0709 66.7267 36.0709C66.6711 36.0709 66.626 36.1397 66.626 36.2246C66.626 36.3095 66.6711 36.3783 66.7267 36.3783Z" fill="#00C880"/>
<path d="M66.7267 37.7104C66.7823 37.7104 66.8274 37.6416 66.8274 37.5567C66.8274 37.4718 66.7823 37.403 66.7267 37.403C66.6711 37.403 66.626 37.4718 66.626 37.5567C66.626 37.6416 66.6711 37.7104 66.7267 37.7104Z" fill="#00C880"/>
<path d="M67.3308 36.8907C67.3864 36.8907 67.4314 36.8219 67.4314 36.737C67.4314 36.6521 67.3864 36.5833 67.3308 36.5833C67.2752 36.5833 67.2301 36.6521 67.2301 36.737C67.2301 36.8219 67.2752 36.8907 67.3308 36.8907Z" fill="#00C880"/>
<path d="M67.2301 38.0179C67.2857 38.0179 67.3307 37.9491 67.3307 37.8642C67.3307 37.7793 67.2857 37.7104 67.2301 37.7104C67.1745 37.7104 67.1294 37.7793 67.1294 37.8642C67.1294 37.9491 67.1745 38.0179 67.2301 38.0179Z" fill="#00C880"/>
<path d="M66.0221 37.5055C66.0777 37.5055 66.1227 37.4367 66.1227 37.3518C66.1227 37.2669 66.0777 37.1981 66.0221 37.1981C65.9665 37.1981 65.9214 37.2669 65.9214 37.3518C65.9214 37.4367 65.9665 37.5055 66.0221 37.5055Z" fill="#00C880"/>
<path d="M69.2435 40.3748C70.133 40.3748 70.8542 39.6407 70.8542 38.7352C70.8542 37.8296 70.133 37.0956 69.2435 37.0956C68.3539 37.0956 67.6328 37.8296 67.6328 38.7352C67.6328 39.6407 68.3539 40.3748 69.2435 40.3748Z" fill="#FF6584"/>
<path opacity="0.2" d="M70.4515 38.8376C70.4515 39.1638 70.3242 39.4766 70.0976 39.7072C69.8711 39.9378 69.5638 40.0673 69.2434 40.0673C68.923 40.0673 68.6158 39.9378 68.3892 39.7072C68.1627 39.4766 68.0354 39.1638 68.0354 38.8376" fill="black"/>
<path opacity="0.2" d="M68.0354 38.6327C68.0354 38.3066 68.1627 37.9938 68.3892 37.7632C68.6158 37.5326 68.923 37.403 69.2434 37.403C69.5638 37.403 69.8711 37.5326 70.0976 37.7632C70.3242 37.9938 70.4515 38.3066 70.4515 38.6327" fill="black"/>
<path d="M68.6394 38.3253C68.695 38.3253 68.7401 38.2565 68.7401 38.1716C68.7401 38.0867 68.695 38.0179 68.6394 38.0179C68.5838 38.0179 68.5388 38.0867 68.5388 38.1716C68.5388 38.2565 68.5838 38.3253 68.6394 38.3253Z" fill="#FF6584"/>
<path d="M69.2435 38.1203C69.2991 38.1203 69.3442 38.0515 69.3442 37.9666C69.3442 37.8817 69.2991 37.8129 69.2435 37.8129C69.1879 37.8129 69.1428 37.8817 69.1428 37.9666C69.1428 38.0515 69.1879 38.1203 69.2435 38.1203Z" fill="#FF6584"/>
<path d="M69.2435 39.4525C69.2991 39.4525 69.3442 39.3837 69.3442 39.2988C69.3442 39.2139 69.2991 39.1451 69.2435 39.1451C69.1879 39.1451 69.1428 39.2139 69.1428 39.2988C69.1428 39.3837 69.1879 39.4525 69.2435 39.4525Z" fill="#FF6584"/>
<path d="M69.8475 38.6327C69.9031 38.6327 69.9482 38.5639 69.9482 38.479C69.9482 38.3941 69.9031 38.3253 69.8475 38.3253C69.7919 38.3253 69.7468 38.3941 69.7468 38.479C69.7468 38.5639 69.7919 38.6327 69.8475 38.6327Z" fill="#FF6584"/>
<path d="M69.7468 39.7599C69.8024 39.7599 69.8475 39.6911 69.8475 39.6062C69.8475 39.5213 69.8024 39.4525 69.7468 39.4525C69.6912 39.4525 69.6461 39.5213 69.6461 39.6062C69.6461 39.6911 69.6912 39.7599 69.7468 39.7599Z" fill="#FF6584"/>
<path d="M68.5388 39.2476C68.5944 39.2476 68.6394 39.1787 68.6394 39.0938C68.6394 39.0089 68.5944 38.9401 68.5388 38.9401C68.4832 38.9401 68.4381 39.0089 68.4381 39.0938C68.4381 39.1787 68.4832 39.2476 68.5388 39.2476Z" fill="#FF6584"/>
<path d="M48.5298 32.9189C48.7656 32.9189 48.9567 32.7243 48.9567 32.4843C48.9567 32.2443 48.7656 32.0497 48.5298 32.0497C48.294 32.0497 48.1028 32.2443 48.1028 32.4843C48.1028 32.7243 48.294 32.9189 48.5298 32.9189Z" fill="#3F3D56"/>
<path d="M60.1347 48.2588L49.8812 45.3643L50.274 43.8792L60.5275 46.7738L60.1347 48.2588Z" fill="#F9A825"/>
<path d="M58.6316 47.7625C55.1204 48.4467 51.5135 48.4467 48.0022 47.7625V46.223C51.5213 46.8167 55.1125 46.8167 58.6316 46.223V47.7625Z" fill="#F9A825"/>
<path d="M59.7243 43.144C56.2131 43.8282 52.6062 43.8282 49.0949 43.144V41.6045C52.614 42.1982 56.2052 42.1982 59.7243 41.6045V43.144Z" fill="#F9A825"/>
<path d="M63.4 44.9914C59.8887 45.6756 56.2818 45.6756 52.7706 44.9914V43.4518C56.2897 44.0455 59.8809 44.0455 63.4 43.4518V44.9914Z" fill="#F9A825"/>
<path d="M64.294 46.7362C60.7828 47.4204 57.1759 47.4204 53.6646 46.7362V45.1967C57.1838 45.7904 60.7749 45.7904 64.294 45.1967V46.7362Z" fill="#F9A825"/>
<path d="M67.4111 49.016L56.9242 50.8091L56.681 49.2902L67.1678 47.4971L67.4111 49.016Z" fill="#F9A825"/>
<path d="M65.8446 49.2134C62.9372 51.3467 59.6604 52.9025 56.1862 53.7989L55.564 52.4C59.0078 51.4184 62.2704 49.8694 65.2224 47.8145L65.8446 49.2134Z" fill="#F9A825"/>
<path d="M64.971 44.5454C62.0635 46.6787 58.7867 48.2344 55.3125 49.1308L54.6903 47.732C58.1341 46.7504 61.3968 45.2014 64.3488 43.1465L64.971 44.5454Z" fill="#F9A825"/>
<path d="M69.0574 44.6384C66.15 46.7717 62.8731 48.3274 59.3989 49.2239L58.7767 47.825C62.2205 46.8434 65.4832 45.2944 68.4352 43.2395L69.0574 44.6384Z" fill="#F9A825"/>
<path d="M70.575 45.8381C67.6675 47.9714 64.3907 49.5272 60.9165 50.4236L60.2943 49.0247C63.7381 48.0431 67.0007 46.4941 69.9528 44.4392L70.575 45.8381Z" fill="#F9A825"/>
<path d="M57.8678 42.8342H57.3644V43.3465H57.8678V42.8342Z" fill="#00BF71"/>
<path d="M59.3779 51.7494H58.8745V52.2618H59.3779V51.7494Z" fill="#00BF71"/>
<path d="M51.3243 42.8342H50.8209V43.3465H51.3243V42.8342Z" fill="#00BF71"/>
<path d="M63.0019 49.1876H62.4986V49.6999H63.0019V49.1876Z" fill="#00BF71"/>
<path d="M63.3039 46.2158H62.8006V46.7282H63.3039V46.2158Z" fill="#00BF71"/>
<path d="M55.0006 44.813L54.4175 44.4102L54.1914 44.7494L54.7745 45.1521L55.0006 44.813Z" fill="#00BF71"/>
<path d="M60.9401 45.9401L60.357 45.5374L60.1309 45.8766L60.7141 46.2793L60.9401 45.9401Z" fill="#00BF71"/>
<path d="M53.692 47.8872L53.1088 47.4844L52.8827 47.8236L53.4659 48.2264L53.692 47.8872Z" fill="#00BF71"/>
<path d="M57.3836 47.8573L57.7792 47.2637L57.446 47.0336L57.0504 47.6272L57.3836 47.8573Z" fill="#00BF71"/>
<path d="M60.1017 48.5747L60.4973 47.9811L60.1641 47.7509L59.7685 48.3445L60.1017 48.5747Z" fill="#00BF71"/>
<path d="M67.3506 46.1151L67.7462 45.5215L67.413 45.2914L67.0174 45.885L67.3506 46.1151Z" fill="#00BF71"/>
<path d="M115 63.7046H0V64H115V63.7046Z" fill="#3F3D56"/>
</g>
<defs>
<clipPath id="clip0_104_148">
<rect width="115" height="64" fill="white"/>
</clipPath>
</defs>
</svg>
