<svg width="324" height="234" viewBox="0 0 324 234" fill="none" xmlns="http://www.w3.org/2000/svg">
<g clip-path="url(#clip0_103_17)">
<g opacity="0.2">
<path d="M273.127 202.229C270.895 203.763 268.619 205.249 266.299 206.686C265.939 206.909 265.579 207.131 265.218 207.36C263.475 208.427 261.704 209.464 259.905 210.473C259.919 210.311 259.936 210.149 259.958 209.988C260.164 208.314 260.621 206.693 261.31 205.197C261.634 204.481 262.019 203.804 262.461 203.176C264.218 200.673 266.656 199.275 269.147 199.683C270.7 199.954 272.114 200.859 273.127 202.229Z" fill="#3F3D56"/>
<path d="M277.218 198.399C277.174 198.76 277.118 199.113 277.05 199.464C275.761 200.409 274.453 201.331 273.127 202.229C270.895 203.763 268.619 205.249 266.299 206.686C265.939 206.909 265.579 207.131 265.218 207.36C264.785 206.997 264.389 206.58 264.038 206.117C263.377 205.246 262.848 204.257 262.47 203.189C261.681 200.859 261.43 198.336 261.74 195.863C262.05 193.39 262.911 191.049 264.241 189.064C266.012 186.561 268.436 185.163 270.927 185.571C273.419 185.979 275.414 188.104 276.483 191.069C277.295 193.394 277.548 195.925 277.218 198.399Z" fill="#3F3D56"/>
<path d="M279.007 184.285C279.811 177.902 276.999 172.159 272.726 171.458C268.453 170.758 264.337 175.364 263.533 181.747C262.729 188.129 265.541 193.872 269.815 194.573C274.088 195.274 278.203 190.668 279.007 184.285Z" fill="#3F3D56"/>
<path d="M323.613 66.2464C322.853 72.3517 320.94 78.1955 318.005 83.3731L296.042 79.5799L315.891 86.7251C314.816 88.274 313.649 89.7372 312.399 91.1044C316.597 99.4007 318.23 109.066 317.037 118.549C315.843 128.032 311.891 136.782 305.816 143.394C309.367 150.386 311.099 158.388 310.808 166.463C301.471 178.864 290.079 189.987 277.059 199.477C275.764 200.414 274.453 201.331 273.127 202.229C270.895 203.763 268.619 205.249 266.299 206.686C265.534 206.518 264.781 206.326 264.038 206.103C263.114 205.837 262.207 205.527 261.319 205.184C255.231 202.813 249.781 198.692 245.494 193.218C241.208 187.744 238.229 181.103 236.846 173.933C235.463 166.764 235.722 159.309 237.598 152.287C239.474 145.265 242.904 138.913 247.557 133.844C247.179 133.1 246.822 132.345 246.485 131.577C246.385 131.354 246.291 131.132 246.19 130.903C243.462 124.412 242.223 117.237 242.589 110.05L242.633 109.306C242.66 108.905 242.692 108.501 242.728 108.1C242.781 107.534 242.843 106.964 242.914 106.395V106.341C243.491 101.746 244.726 97.2911 246.568 93.1526L273.345 108.541L248.93 88.5711C250.436 86.0249 252.177 83.6712 254.125 81.5507C251.579 76.4724 249.975 70.8516 249.411 65.0367C248.846 59.2217 249.335 53.3365 250.845 47.7457C252.356 42.1549 254.856 36.9777 258.192 32.535C261.528 28.0923 265.627 24.4787 270.237 21.9182C274.846 19.3577 279.868 17.9048 284.989 17.6496C290.111 17.3944 295.224 18.3423 300.012 20.4346C304.799 22.5269 309.159 25.719 312.821 29.813C316.484 33.907 319.37 38.8158 321.302 44.235L291.231 62.5913L322.923 49.9686C324.068 55.2933 324.303 60.8203 323.613 66.2464Z" fill="#00C880"/>
<path opacity="0.1" d="M310.799 166.45C301.462 178.85 290.071 189.974 277.05 199.464C275.761 200.409 274.453 201.331 273.127 202.229C270.895 203.763 268.619 205.249 266.299 206.686C265.534 206.518 264.781 206.326 264.038 206.103C263.114 205.837 262.207 205.527 261.319 205.184C255.231 202.813 249.781 198.692 245.494 193.218C241.208 187.744 238.229 181.103 236.846 173.933C235.463 166.764 235.722 159.309 237.598 152.287C239.474 145.265 242.904 138.913 247.557 133.844C247.179 133.1 246.822 132.345 246.485 131.577C246.385 131.354 246.291 131.132 246.19 130.903C243.462 124.412 242.223 117.237 242.589 110.05L242.633 109.306C242.66 108.905 242.692 108.501 242.728 108.1C242.781 107.534 242.843 106.965 242.914 106.395V106.341C243.144 105.432 246.19 106.196 250.831 108.026L251.811 108.423C252.838 108.844 253.933 109.309 255.084 109.818C257.597 110.923 260.371 112.226 263.3 113.668L263.491 113.763L263.899 113.965C283.588 123.707 309.488 139.338 305.775 143.374C309.338 150.364 311.081 158.369 310.799 166.45Z" fill="black"/>
</g>
<g opacity="0.2">
<path d="M94.1398 221.135C92.8999 220.645 91.669 220.142 90.4469 219.626C87.6012 218.431 84.7999 217.168 82.0428 215.836C82.6018 215.318 83.2363 214.917 83.9172 214.65C86.3762 213.686 89.0772 214.606 91.2764 216.823C92.4634 218.038 93.4354 219.502 94.1398 221.135Z" fill="#3F3D56"/>
<path d="M91.2764 216.823C91.1091 217.795 90.8302 218.737 90.4469 219.626C87.6012 218.431 84.7999 217.168 82.0428 215.836C79.6438 214.684 77.2823 213.481 74.9582 212.228C74.8566 211.424 74.8111 210.611 74.8224 209.799C74.8323 208.952 74.9113 208.109 75.0585 207.279C75.6489 203.968 77.3197 201.33 79.7816 200.366C82.2435 199.403 84.9416 200.323 87.1407 202.543C87.6733 203.081 88.1614 203.674 88.599 204.315C89.5683 205.739 90.3153 207.344 90.807 209.058C91.5523 211.556 91.7141 214.232 91.2764 216.823Z" fill="#3F3D56"/>
<path d="M82.2653 209.51C86.5122 207.978 88.4992 201.48 86.7034 194.996C84.9076 188.512 80.0091 184.498 75.7622 186.03C71.5152 187.561 69.5282 194.06 71.324 200.544C73.1198 207.028 78.0184 211.042 82.2653 209.51Z" fill="#3F3D56"/>
<path d="M77.5203 194.556C81.7516 193.031 83.7325 186.558 81.9449 180.098C80.1573 173.638 75.278 169.637 71.0467 171.162C66.8154 172.687 64.8344 179.16 66.6221 185.62C68.4097 192.08 73.289 196.081 77.5203 194.556Z" fill="#3F3D56"/>
<path d="M88.5842 204.315C87.7636 204.863 86.9213 205.376 86.0574 205.854C84.6648 206.626 83.2325 207.301 81.7682 207.875C80.4322 208.402 79.0711 208.841 77.6916 209.193C76.7332 209.44 75.7739 209.641 74.8135 209.796C73.6209 209.991 72.4313 210.119 71.2446 210.18C56.9809 202.095 44.1755 192.204 33.2475 180.909C33.091 180.43 32.9523 179.948 32.8018 179.46C30.0004 169.874 30.0481 159.501 32.9375 149.95C25.6301 144.35 20.173 136.123 17.434 126.577C16.0715 121.906 15.3739 117.015 15.3677 112.092H46.2832L15.6688 106.506C16.0089 103.294 16.6461 100.133 17.5698 97.0739C10.262 91.4765 4.80462 83.2504 2.06634 73.7049C-4.79983 50.0866 5.99534 24.5211 26.1776 16.5911C39.6886 11.2887 53.9788 15.2436 64.0124 25.5183L43.8951 59.1249L67.847 30.0459C71.0878 34.4615 73.564 39.5395 75.1441 45.0099C76.9457 51.1887 77.5776 57.7335 76.9979 64.2117L55.2629 72.5325L76.4282 68.5136C76.0756 70.5515 75.6012 72.5595 75.0083 74.5235C82.3156 80.1216 87.7727 88.3474 90.5118 97.8925C91.8386 102.44 92.5358 107.195 92.5782 111.987V112.024C92.5782 112.395 92.5782 112.765 92.5782 113.136C92.5782 113.294 92.5782 113.449 92.5782 113.608C92.475 118.313 91.7372 122.971 90.3908 127.42C93.3606 129.69 96.0425 132.416 98.361 135.521C98.42 135.596 98.4761 135.67 98.5292 135.747C101.799 140.18 104.294 145.285 105.882 150.789C111.925 171.574 104.277 193.875 88.5842 204.315Z" fill="#00C880"/>
<path opacity="0.1" d="M88.5842 204.315C87.7636 204.863 86.9213 205.376 86.0574 205.854C84.6648 206.626 83.2325 207.301 81.7682 207.875C80.4322 208.402 79.0711 208.841 77.6916 209.193C76.7332 209.44 75.7739 209.641 74.8135 209.796C73.6209 209.991 72.4313 210.119 71.2446 210.18C56.9809 202.095 44.1755 192.204 33.2475 180.909C33.091 180.43 32.9523 179.948 32.8017 179.46C30.0004 169.874 30.0481 159.501 32.9375 149.95C25.6301 144.35 20.173 136.123 17.434 126.577C16.3743 122.932 60.5675 119.991 80.6967 122.811L81.166 122.878C87.2765 123.778 91.0284 125.237 90.376 127.396C93.3458 129.667 96.0277 132.393 98.3462 135.498C98.4053 135.572 98.4613 135.646 98.5145 135.724C101.784 140.156 104.28 145.262 105.868 150.765C111.925 171.574 104.277 193.875 88.5842 204.315Z" fill="black"/>
</g>
<path opacity="0.1" d="M112.825 78.0404C112.986 77.7795 113.074 77.4698 113.079 77.1511C113.079 75.214 109.623 73.6476 105.36 73.6476C101.097 73.6476 97.6466 75.2275 97.6466 77.1511C97.6526 77.5182 97.7635 77.8731 97.9625 78.1617C93.2187 78.7647 90.0218 79.9 90.0218 81.1936C90.0218 83.1272 97.1064 84.6937 105.829 84.6937C114.552 84.6937 121.637 83.1272 121.637 81.1936C121.634 79.8057 118.044 78.6131 112.825 78.0404Z" fill="#00C880"/>
<path opacity="0.1" d="M235.307 6.97668C235.562 6.56012 235.702 6.06647 235.711 5.55843C235.711 2.48951 230.226 0 223.461 0C216.695 0 211.21 2.48951 211.21 5.55843C211.222 6.13392 211.4 6.68893 211.715 7.13838C204.181 8.09847 199.107 9.89738 199.107 11.9591C199.107 15.028 210.324 17.5175 224.198 17.5175C238.073 17.5175 249.29 15.028 249.29 11.9591C249.29 9.77274 243.59 7.88287 235.307 6.97668Z" fill="#00C880"/>
<path opacity="0.1" d="M137.008 6.97668C137.263 6.56012 137.403 6.06647 137.412 5.55843C137.412 2.48951 131.927 0 125.161 0C118.396 0 112.911 2.48951 112.911 5.55843C112.923 6.13392 113.101 6.68893 113.416 7.13838C105.882 8.09847 100.808 9.89738 100.808 11.9591C100.808 15.028 112.04 17.5175 125.899 17.5175C139.759 17.5175 150.991 15.028 150.991 11.9591C150.991 9.77274 145.291 7.88287 137.008 6.97668Z" fill="#00C880"/>
<path opacity="0.1" d="M105.95 35.9951C106.641 35.5403 107.568 35.9748 108.04 36.7059C108.513 37.4369 108.648 38.3902 108.767 39.2762C109.029 41.2672 109.218 43.5545 108.043 45.057C109.965 38.397 115.5 33.2933 121.622 32.5488" stroke="#6C63FF" stroke-width="3" stroke-miterlimit="10"/>
<path opacity="0.1" d="M183.134 2.9746C183.577 2.68152 184.176 2.97461 184.48 3.42939C184.751 3.9294 184.91 4.49723 184.944 5.08344C185.112 6.36357 185.239 7.83234 184.48 8.78906C185.129 6.65104 186.29 4.76374 187.832 3.34209C189.374 1.92044 191.235 1.02158 193.203 0.747864" stroke="#6C63FF" stroke-width="3" stroke-miterlimit="10"/>
<path opacity="0.1" d="M233.907 65.2964C234.35 65.0034 234.949 65.2964 235.253 65.7512C235.524 66.2512 235.683 66.8191 235.717 67.4053C235.885 68.6854 236.012 70.1542 235.253 71.1109C235.902 68.9729 237.063 67.0856 238.605 65.6639C240.147 64.2423 242.008 63.3434 243.976 63.0697" stroke="#6C63FF" stroke-width="3" stroke-miterlimit="10"/>
<path d="M161.523 21.8935C160.26 23.0995 159.368 24.6458 157.981 25.7339C156.31 27.0477 154.117 27.5463 152.077 28.2503C150.037 28.9544 147.944 30.0594 147.124 31.9762C146.427 33.6168 146.829 35.5201 146.238 37.1977C145.604 38.9798 143.956 40.2296 142.696 41.6681C140.205 44.5045 139.098 48.4056 139.744 52.0438C140.19 54.5603 141.409 56.8847 142.132 59.3405C143.018 62.3454 143.142 65.4952 143.266 68.6113C143.496 74.4628 143.723 80.3716 142.569 86.1288C142.274 87.574 141.477 109.548 139.933 109.505C144.03 109.104 148.151 109.06 152.269 109.013L213.964 108.339C211.121 104.094 209.306 79.0106 208.704 74.008C207.665 65.384 210.18 56.7499 210.475 48.0687C210.516 46.9503 210.516 45.8015 210.112 44.7505C209.687 43.6489 208.837 42.709 208.553 41.567C208.146 39.9332 208.964 38.2589 208.99 36.5812C209.043 33.2125 206.038 30.6287 203.656 28.1324C201.359 25.7305 199.45 23.0018 197.079 20.6605C194.709 18.3193 191.73 16.3351 188.341 15.9746C185.558 15.6815 182.792 16.5069 180.126 17.3221C176.947 18.2923 173.927 19.5185 170.553 19.4579C166.831 19.3838 164.537 19.7375 161.523 21.8935Z" fill="#2F2E41"/>
<g opacity="0.1">
<path d="M204.019 35.163C204.105 35.5315 204.23 35.8867 204.391 36.2208C204.351 35.4628 204.19 34.7195 203.916 34.0277C203.903 34.4098 203.938 34.792 204.019 35.163Z" fill="black"/>
<path d="M144.187 89.255L143.844 89.2893C143.959 89.2921 144.074 89.2806 144.187 89.255Z" fill="black"/>
</g>
<path d="M208.252 210.651C207.876 210.984 207.426 211.193 206.953 211.254C199.405 213.023 191.789 214.532 184.094 215.01C177.304 215.435 170.494 215.054 163.702 214.673C156.909 214.293 150.123 213.909 143.493 212.342C146.24 206.03 147.97 199.205 148.6 192.194C148.879 189.117 148.947 186.019 148.803 182.93C148.782 182.558 148.742 182.188 148.685 181.821C148.37 179.605 147.59 176.394 148.299 174.791C149.208 172.729 152.7 172.662 154.406 172.278C157.305 171.628 160.219 171.085 163.144 170.63C174.754 168.828 186.482 168.417 198.18 168.016C199.751 167.962 201.622 168.084 202.44 169.616C202.897 170.476 202.874 171.547 202.85 172.554C202.797 174.735 202.816 176.915 202.906 179.096C203.317 188.766 205.13 198.29 208.273 207.282C208.663 208.384 209.02 209.826 208.252 210.651Z" fill="#FBBEBE"/>
<path d="M162.32 90.6867C161.086 92.4216 159.348 93.5872 157.597 94.6113C155.506 95.8441 153.352 96.9331 151.147 97.8722C150.702 98.6437 151.056 99.6678 151.442 100.49C154.905 108.164 159.54 115.791 166.53 119.089C170.116 120.773 174.051 121.194 177.918 121.588C179.123 121.71 180.351 121.831 181.526 121.501C182.7 121.171 183.793 120.372 184.773 119.527C191.177 113.996 195.395 105.789 196.498 96.71C196.592 95.9049 196.592 94.9179 195.987 94.4867C195.618 94.2273 195.149 94.2778 194.715 94.2812C191.884 94.3148 189.375 91.923 188.067 89.063C186.759 86.2029 186.411 82.9049 186.089 79.6945C186.089 79.6237 169.446 79.2229 167.944 79.2094C165.6 79.1858 164.826 79.4991 164.599 82.2413C164.36 85.2664 164.065 88.2208 162.32 90.6867Z" fill="#FBBEBE"/>
<path opacity="0.1" d="M162.32 90.6867C161.086 92.4216 159.348 93.5872 157.597 94.6113C155.506 95.8441 153.352 96.9331 151.147 97.8722C150.702 98.6437 151.056 99.6678 151.442 100.49C154.905 108.164 159.54 115.791 166.53 119.089C170.116 120.773 174.051 121.194 177.918 121.588C179.123 121.71 180.351 121.831 181.526 121.501C182.7 121.171 183.793 120.372 184.773 119.527C191.177 113.996 195.395 105.789 196.498 96.71C196.592 95.9049 196.592 94.9179 195.987 94.4867C195.618 94.2273 195.149 94.2778 194.715 94.2812C191.884 94.3148 189.375 91.923 188.067 89.063C186.759 86.2029 186.411 82.9049 186.089 79.6945C186.089 79.6237 169.446 79.2229 167.944 79.2094C165.6 79.1858 164.826 79.4991 164.599 82.2413C164.36 85.2664 164.065 88.2208 162.32 90.6867Z" fill="black"/>
<path d="M175.548 87.099C188.101 87.099 198.278 75.4856 198.278 61.1596C198.278 46.8337 188.101 35.2203 175.548 35.2203C162.995 35.2203 152.818 46.8337 152.818 61.1596C152.818 75.4856 162.995 87.099 175.548 87.099Z" fill="#FBBEBE"/>
<path d="M192.217 91.9129C192.468 95.5512 158.205 98.957 156.912 94.4698C156.145 95.504 154.737 95.5882 153.615 95.1435C152.493 94.6989 151.549 93.8432 150.486 93.2133C148.715 92.1588 146.719 91.7681 144.756 91.3874C141.559 90.7709 137.846 90.3195 135.478 92.8494C134.661 93.7219 134.103 94.8707 133.282 95.7466C131.848 97.2692 129.82 97.7442 127.969 98.4416C125.297 99.4522 122.835 101.069 120.311 102.484C114.418 105.795 108.135 108.113 101.658 109.363C100.28 109.629 98.8923 109.845 97.5256 110.219C95.6069 110.744 93.6881 111.644 92.3804 113.331C93.9095 115.562 96.1057 116.778 98.4643 117.657L121.224 126.146C124.648 127.423 128.125 128.727 131.121 131.014C136.113 134.814 139.36 141.06 141.137 147.598C142.914 154.137 143.372 161.036 143.815 167.865C144.007 170.833 144.181 173.928 143.159 176.677C148.461 177.39 153.822 177.289 159.1 176.378C164.18 175.495 169.204 173.858 174.343 173.912C179.952 173.976 185.387 176.051 190.916 177.173C196.445 178.294 202.546 178.328 207.204 174.747C206.212 173.221 206.062 171.041 206.024 169.148L205.905 160.177C205.853 159.094 205.916 158.008 206.094 156.943C206.49 155.023 207.603 153.413 208.314 151.617C209.687 148.151 209.495 144.189 209.572 140.386C209.648 136.583 210.115 132.496 212.367 129.714C213.843 127.898 215.909 126.867 218.005 126.23C221.589 125.139 225.338 125.068 229.04 124.768C241.108 123.781 252.915 120.272 263.872 114.416C263.217 112.836 261.694 111.94 260.303 111.206C257.015 109.471 253.532 107.692 249.924 108.08C248.18 108.268 246.453 108.962 244.714 108.71C243.067 108.467 241.609 107.402 240.009 106.894C238.796 106.51 237.526 106.452 236.281 106.237C233.406 105.735 230.707 104.384 228.048 103.047L221.329 99.6779C219.558 98.7852 217.713 97.8318 216.497 96.107C216.101 95.5444 215.783 94.9111 215.352 94.3822C214.611 93.476 213.58 92.9404 212.55 92.5665C211.256 92.0524 209.876 91.8797 208.515 92.0611C207.581 92.2728 206.66 92.5484 205.755 92.8865C201.315 94.2542 196.734 92.8326 192.217 91.9129Z" fill="#00C880"/>
<path d="M218.215 227.589C206.116 230.909 193.792 233.05 181.375 233.99H181.354H150.179H150.161C144.582 233.556 139.084 232.894 133.666 232.002C135.265 226.571 137.468 221.397 140.222 216.607C140.663 215.929 141.007 215.177 141.244 214.377C141.373 213.633 141.44 212.876 141.441 212.117C141.585 209.792 142.375 207.58 143.697 205.804C144.311 206.185 144.93 206.553 145.556 206.905C152.646 210.924 160.368 213.289 168.268 213.862C172.424 214.105 176.59 214.009 180.734 213.575C190.08 212.716 199.798 210.735 207.325 204.446C207.641 204.183 207.954 203.91 208.264 203.631C211.921 207.336 214.038 213.016 215.552 218.325C216.453 221.431 217.285 224.53 218.215 227.589Z" fill="#2F2E41"/>
<path opacity="0.1" d="M175.424 206.157C175.277 206.701 175.241 207.276 175.318 207.839C175.396 208.401 175.586 208.936 175.873 209.401C176.064 208.914 176.121 208.372 176.036 207.847C175.95 207.323 175.726 206.84 175.394 206.464L175.424 206.157Z" fill="black"/>
<path d="M162.509 97.2591C163.655 96.545 164.891 95.9116 166.196 95.8914C168.156 95.8712 169.91 97.2389 171.362 98.7481C172.705 100.132 173.919 101.67 174.987 103.336C175.518 104.162 176.026 105.068 176.106 106.089C176.185 107.109 175.695 108.258 174.822 108.501C174.27 108.607 173.703 108.476 173.231 108.133C171.211 106.867 169.715 103.966 167.424 104.249C165.854 104.441 164.791 106.109 163.932 107.618C163.168 108.966 162.394 110.35 162.052 111.906C161.709 113.463 161.875 115.275 162.825 116.448C163.563 117.367 164.641 117.795 165.647 118.273C167.874 119.325 169.912 120.835 171.66 122.727C172.507 123.65 173.313 124.748 173.431 126.096C173.549 127.443 172.655 128.925 171.486 128.831C170.959 128.737 170.462 128.49 170.043 128.114C167.929 126.52 165.771 124.849 163.291 124.263C160.768 123.667 158.161 124.263 155.616 124.708C152.826 125.184 150.022 125.523 147.204 125.725C146.367 125.835 145.52 125.772 144.703 125.54C141.917 124.556 141.105 120.51 141.43 117.586C141.775 114.46 143.791 113.749 145.899 112.196C151.826 107.77 156.225 101.167 162.509 97.2591Z" fill="#FBBEBE"/>
<path d="M184.345 97.2591C183.196 96.545 181.962 95.9116 180.655 95.8914C178.695 95.8712 176.941 97.2389 175.489 98.7481C174.147 100.132 172.934 101.67 171.867 103.336C171.338 104.162 170.831 105.068 170.751 106.089C170.671 107.109 171.158 108.258 172.032 108.501C172.585 108.607 173.153 108.476 173.626 108.133C175.645 106.867 177.142 103.966 179.43 104.249C181.003 104.441 182.066 106.109 182.922 107.618C183.686 108.966 184.463 110.35 184.802 111.906C185.142 113.463 184.979 115.275 184.029 116.448C183.294 117.367 182.213 117.795 181.207 118.273C178.98 119.325 176.94 120.835 175.191 122.727C174.343 123.65 173.541 124.748 173.419 126.096C173.298 127.443 174.196 128.925 175.365 128.831C175.892 128.737 176.389 128.49 176.808 128.114C178.922 126.52 181.08 124.849 183.559 124.263C186.083 123.667 188.69 124.263 191.234 124.708C194.018 125.206 196.825 125.553 199.638 125.745C200.476 125.855 201.324 125.792 202.142 125.56C204.925 124.576 205.737 120.53 205.415 117.606C205.067 114.48 203.054 113.769 200.943 112.216C195.028 107.77 190.632 101.167 184.345 97.2591Z" fill="#FBBEBE"/>
<path d="M159.832 51.7878C161.154 49.4027 162.725 46.8155 164.871 46.5393C167.867 46.1519 170.208 50.4268 173.189 50.9793C177.027 51.6935 180.799 46.0879 184.407 48.1361C186.178 49.1467 187.5 51.9495 189.425 51.8956C190.756 51.8619 191.84 50.4369 192.722 49.0389C194.212 46.6818 195.53 44.1896 196.663 41.5872C193 36.7935 187.671 35.6986 182.697 34.8261L174.335 33.3607C172.321 33.007 170.273 32.6567 168.271 33.1451C166.462 33.5864 164.773 34.6981 163.135 35.8671C161.181 37.2685 156.585 39.5188 155.386 42.1262C154.551 43.9352 155.699 44.7774 156.777 46.5999C157.79 48.3292 158.808 50.0585 159.832 51.7878Z" fill="#2F2E41"/>
<path opacity="0.1" d="M147.165 110.337C143.538 111.163 139.833 111.464 136.14 111.233C134.69 111.145 133.235 110.973 131.792 111.128C130.05 111.317 128.376 111.974 126.679 112.452C117.885 114.921 108.696 112.509 99.7189 111.155C98.1337 110.916 96.5131 110.711 94.9427 111.061C93.5051 111.381 92.1767 112.149 90.9044 112.974C88.843 114.312 86.8699 115.82 85.0006 117.485C83.0435 119.23 81.0686 121.453 80.9328 124.28C80.8148 126.712 82.1136 128.952 83.687 130.606C87.9378 135.097 94.249 136.448 99.9403 135.232C102.104 134.77 104.215 133.975 106.402 133.699C108.643 133.416 110.907 133.699 113.159 133.578C117.734 133.345 122.115 131.529 126.558 130.266C133.495 128.295 140.672 127.653 147.794 128.366C147.732 128.397 147.665 128.411 147.597 128.409C147.53 128.406 147.464 128.387 147.404 128.352C147.343 128.317 147.291 128.267 147.25 128.206C147.208 128.145 147.18 128.074 147.165 127.999C146.643 126.355 146.616 124.566 146.625 122.818C146.649 118.577 146.823 114.561 147.165 110.337Z" fill="black"/>
<path d="M146.575 110.673C142.947 111.5 139.243 111.801 135.549 111.57C134.1 111.482 132.645 111.31 131.201 111.465C129.459 111.654 127.786 112.311 126.088 112.789C117.295 115.258 108.105 112.846 99.1285 111.492C97.5433 111.253 95.9227 111.047 94.3523 111.398C92.9147 111.718 91.5863 112.486 90.314 113.311C88.2526 114.649 86.2795 116.157 84.4102 117.822C82.4531 119.567 80.4782 121.79 80.3425 124.617C80.2244 127.049 81.5232 129.289 83.0966 130.943C87.3474 135.434 93.6586 136.785 99.3499 135.569C101.514 135.107 103.624 134.312 105.812 134.036C108.052 133.753 110.316 134.036 112.569 133.914C117.144 133.682 121.525 131.866 125.967 130.603C132.905 128.632 140.081 127.99 147.203 128.703C147.142 128.734 147.074 128.748 147.007 128.746C146.939 128.743 146.873 128.724 146.813 128.689C146.753 128.654 146.701 128.604 146.659 128.543C146.618 128.482 146.589 128.411 146.575 128.336C146.052 126.692 146.026 124.903 146.035 123.155C146.058 118.913 146.232 114.898 146.575 110.673Z" fill="#00C880"/>
<path opacity="0.1" d="M200.374 108.534C204.872 109.703 215.7 110.219 220.311 110.044C222.416 109.969 224.514 109.754 226.619 109.761C230.226 109.761 233.828 110.434 237.426 110.161C242.075 109.798 246.642 107.847 251.279 108.349C253.558 108.598 255.752 109.427 257.924 110.256C260.097 111.084 262.464 112.021 263.993 114.036C265.41 115.902 265.927 118.415 266.396 120.827C266.659 122.174 266.922 123.566 266.691 124.917C266.252 127.48 264.182 129.215 262.196 130.509C259.834 132.045 257.242 133.365 254.521 133.295C252.906 133.254 251.336 132.722 249.798 132.169C245.39 130.59 240.886 128.801 236.281 129.195C233.06 129.478 229.843 130.832 226.675 130.101C224.812 129.67 223.133 128.545 221.362 127.797C217.046 125.995 206.091 126.473 201.516 126.972C201.782 124.037 201.749 121.08 202.015 118.142C202.221 115.895 202.419 113.567 201.787 111.425C201.392 110.141 201.259 109.444 200.374 108.534Z" fill="black"/>
<path d="M200.669 109.208C205.167 110.377 215.995 110.892 220.606 110.717C222.711 110.643 224.81 110.428 226.914 110.434C230.521 110.434 234.123 111.108 237.721 110.835C242.371 110.471 246.937 108.521 251.575 109.023C253.853 109.272 256.047 110.101 258.219 110.93C260.392 111.758 262.759 112.695 264.289 114.709C265.705 116.576 266.222 119.089 266.691 121.501C266.954 122.848 267.217 124.239 266.987 125.59C266.547 128.154 264.477 129.889 262.491 131.182C260.129 132.719 257.537 134.039 254.816 133.968C253.201 133.928 251.631 133.396 250.093 132.843C245.686 131.263 241.181 129.474 236.576 129.869C233.355 130.152 230.138 131.506 226.97 130.775C225.108 130.344 223.428 129.218 221.657 128.471C217.341 126.668 206.387 127.147 201.811 127.645C202.077 124.711 202.044 121.753 202.31 118.816C202.517 116.569 202.714 114.241 202.083 112.098C201.687 110.815 201.554 110.118 200.669 109.208Z" fill="#00C880"/>
<path d="M153.766 57.9088C153.075 57.7033 152.809 56.7061 152.186 56.3053C151.563 55.9044 150.784 56.221 150.335 56.8173C149.919 57.4483 149.693 58.2168 149.692 59.007C149.637 60.711 150.043 62.393 150.857 63.8232C151.671 65.2533 152.851 66.362 154.238 66.9977C153.621 63.9311 153.382 60.7812 153.529 57.6393L153.766 57.9088Z" fill="#FBBEBE"/>
<path d="M197.327 57.9088C198.018 57.7033 198.281 56.7061 198.903 56.3053C199.526 55.9044 200.306 56.221 200.754 56.8173C201.172 57.4475 201.398 58.2165 201.398 59.007C201.453 60.711 201.046 62.393 200.233 63.8232C199.419 65.2533 198.238 66.362 196.852 66.9977C197.469 63.9311 197.708 60.7812 197.56 57.6393L197.327 57.9088Z" fill="#FBBEBE"/>
<g opacity="0.1">
<path d="M169.033 132.611C169.596 134.959 169.869 137.385 169.845 139.82C169.845 144.054 169.116 147.75 168.029 149.734C167.938 150.677 167.834 151.614 167.734 152.534C169.266 151.186 170.391 146.76 170.391 141.504C170.379 137.913 169.854 134.71 169.033 132.611Z" fill="black"/>
</g>
<g opacity="0.1">
<path d="M177.349 132.611C176.785 134.959 176.51 137.385 176.534 139.82C176.534 144.054 177.266 147.75 178.352 149.734C178.444 150.677 178.544 151.614 178.647 152.534C177.115 151.186 175.991 146.76 175.991 141.504C175.988 137.913 176.513 134.71 177.349 132.611Z" fill="black"/>
</g>
<path opacity="0.1" d="M192.699 47.3545C191.813 48.7525 190.733 50.1775 189.401 50.2112C187.474 50.2651 186.154 47.469 184.383 46.4517C180.79 44.4035 177.027 50.0091 173.166 49.2949C170.184 48.7424 167.852 44.4675 164.847 44.8549C162.701 45.1311 161.131 47.7183 159.808 50.1034C158.785 48.3764 157.763 46.6471 156.741 44.9155C156.151 43.9049 155.51 43.1806 155.224 42.4328C154.651 44.0363 155.726 44.8852 156.741 46.5999C157.757 48.3146 158.784 50.0596 159.808 51.7878C161.131 49.4027 162.701 46.8155 164.847 46.5393C167.843 46.1519 170.184 50.4268 173.166 50.9793C177.003 51.6935 180.776 46.0879 184.383 48.1361C186.154 49.1467 187.477 51.9495 189.401 51.8956C190.733 51.8619 191.816 50.4369 192.699 49.0389C194.188 46.6818 195.506 44.1896 196.639 41.5872C196.48 41.3783 196.315 41.1762 196.146 40.9808C195.128 43.1943 193.976 45.324 192.699 47.3545Z" fill="black"/>
</g>
<defs>
<clipPath id="clip0_103_17">
<rect width="324" height="234" fill="white"/>
</clipPath>
</defs>
</svg>
