<svg width="84" height="84" viewBox="0 0 84 84" fill="none" xmlns="http://www.w3.org/2000/svg">
<g clip-path="url(#clip0_104_111)">
<path d="M42.7515 54.8342C50.2814 54.8342 56.3856 48.73 56.3856 41.2001C56.3856 33.6703 50.2814 27.5661 42.7515 27.5661C35.2217 27.5661 29.1175 33.6703 29.1175 41.2001C29.1175 48.73 35.2217 54.8342 42.7515 54.8342Z" fill="#FFB6B6"/>
<path d="M34.9247 56.8504L34.3087 50.624L46.6089 48.324L53.8721 66.0082L41.2405 80.5346L32.2405 62.8504L34.9247 56.8504Z" fill="#FFB6B6"/>
<path d="M34.1112 53.7406L36.8003 54.3482C36.8003 54.3482 34.6864 47.6448 35.4039 47.0049C36.1214 46.3649 37.8797 47.3733 37.8797 47.3733L39.7274 49.4449L41.978 47.1534C41.978 47.1534 44.4214 44.1152 45.3781 43.2619C46.3348 42.4086 44.7981 39.2413 44.7981 39.2413C44.7981 39.2413 58.9915 35.4141 53.7101 28.5298C53.7101 28.5298 50.6137 23.1322 49.6053 24.8905C48.5969 26.6488 47.3945 23.8563 47.3945 23.8563L43.7229 24.5545C43.7229 24.5545 36.4764 20.2818 29.5987 29.4223C22.7209 38.5629 34.1112 53.7406 34.1112 53.7406Z" fill="#2F2E41"/>
<path d="M68.3937 74.6763C60.9426 80.7173 51.7247 84 42 84C33.12 84 24.6616 81.2621 17.5863 76.1873C17.5989 76.0547 17.6116 75.9237 17.6226 75.7926C17.8105 73.74 17.9779 71.7442 18.0884 70.0895C18.5163 63.6647 33.5052 59.3826 33.5052 59.3826C33.5052 59.3826 33.5731 59.4505 33.7089 59.5689C34.5363 60.2952 37.8947 62.9289 43.7842 63.6647C49.0358 64.3216 50.7647 61.2063 51.2874 59.7142C51.4453 59.2594 51.4926 58.9547 51.4926 58.9547L66.9095 66.2352C67.9152 67.6721 68.3084 70.7668 68.3858 74.2452C68.3889 74.3889 68.3921 74.531 68.3937 74.6763Z" fill="#00C880"/>
<path d="M71.6984 12.3016C63.7658 4.36894 53.2184 0 42 0C30.7816 0 20.2342 4.36894 12.3016 12.3016C4.36895 20.2342 0 30.7816 0 42C0 52.2395 3.63948 61.92 10.309 69.5637C10.9453 70.2947 11.61 71.0068 12.3016 71.6984C12.4642 71.861 12.6284 72.0237 12.7942 72.1816C13.2363 72.6095 13.6863 73.0279 14.1442 73.4337C14.4221 73.6816 14.7032 73.9247 14.9874 74.1632C15.21 74.3511 15.4326 74.5358 15.6584 74.7174C15.6632 74.7221 15.6663 74.7253 15.6711 74.7284C16.2979 75.2337 16.9358 75.72 17.5863 76.1874C24.6616 81.2621 33.12 84 42 84C51.7247 84 60.9426 80.7174 68.3937 74.6763C69.0016 74.1837 69.5968 73.6721 70.1811 73.1432C70.6974 72.6758 71.2026 72.1942 71.6984 71.6984C71.8547 71.5421 72.0111 71.3842 72.1642 71.2247C72.5905 70.7858 73.0042 70.3389 73.4084 69.8858C80.2563 62.1932 84 52.3847 84 42C84 30.7816 79.6311 20.2342 71.6984 12.3016ZM73.3058 69.4926C72.9111 69.9411 72.5068 70.3832 72.0932 70.8142C71.4489 71.4853 70.7842 72.1358 70.0974 72.7626C69.8368 73.0026 69.5732 73.2363 69.3063 73.4684C69.0032 73.7321 68.6968 73.9911 68.3858 74.2453C65.9337 76.2584 63.2479 77.9953 60.3758 79.41C59.2405 79.9705 58.0768 80.4805 56.8863 80.9368C52.2616 82.7116 47.2421 83.6842 42 83.6842C36.9411 83.6842 32.0905 82.7779 27.6016 81.12C25.7589 80.4411 23.9779 79.6342 22.2679 78.7105C22.0168 78.5747 21.7674 78.4374 21.5195 78.2968C20.2153 77.5579 18.9537 76.7511 17.7426 75.8795C17.7032 75.8511 17.6621 75.8211 17.6226 75.7926C16.7605 75.1705 15.9221 74.5153 15.1121 73.8268C14.8153 73.5758 14.5216 73.3216 14.2326 73.0611C13.7621 72.6426 13.3011 72.2116 12.8511 71.7695C11.9984 70.9342 11.1837 70.0642 10.4053 69.1595C4.11948 61.8584 0.315789 52.3658 0.315789 42C0.315789 19.0153 19.0153 0.315789 42 0.315789C64.9847 0.315789 83.6842 19.0153 83.6842 42C83.6842 52.5253 79.7637 62.1505 73.3058 69.4926Z" fill="#3F3D56"/>
</g>
<defs>
<clipPath id="clip0_104_111">
<rect width="84" height="84" fill="white"/>
</clipPath>
</defs>
</svg>
